<svg width="121" height="90" viewBox="0 0 121 90" fill="none" xmlns="http://www.w3.org/2000/svg">
<g id="undraw_marketing_re_7f1g 1">
<g clip-path="url(#clip0_380_621)">
<path id="Vector" d="M119.653 58.6342H73.4455C73.2073 58.6339 72.9789 58.5227 72.8105 58.3251C72.642 58.1276 72.5473 57.8597 72.547 57.5802V1.4453C72.5473 1.16587 72.642 0.89798 72.8105 0.700395C72.9789 0.50281 73.2073 0.39167 73.4455 0.391357H119.653C119.891 0.391669 120.12 0.50281 120.288 0.700395C120.457 0.89798 120.551 1.16587 120.552 1.4453V57.5802C120.551 57.8597 120.457 58.1276 120.288 58.3251C120.12 58.5227 119.891 58.6339 119.653 58.6342ZM73.4455 0.75882C73.2904 0.759028 73.1416 0.83142 73.0319 0.960115C72.9222 1.08881 72.8605 1.2633 72.8603 1.4453V57.5802C72.8605 57.7622 72.9222 57.9367 73.0319 58.0654C73.1416 58.1941 73.2904 58.2665 73.4455 58.2667H119.653C119.808 58.2665 119.957 58.1941 120.067 58.0654C120.176 57.9367 120.238 57.7622 120.238 57.5802V1.4453C120.238 1.2633 120.176 1.08881 120.067 0.960115C119.957 0.83142 119.808 0.759028 119.653 0.75882H73.4455Z" fill="#3F3D56"/>
<path id="Vector_2" d="M105.259 23.9837C106.291 26.2202 106.669 28.7924 106.335 31.3053C106.001 33.8183 104.972 36.133 103.408 37.8942C101.844 39.6555 99.83 40.7658 97.6757 41.0548C95.5214 41.3437 93.3458 40.7953 91.4829 39.4938C89.62 38.1923 88.1728 36.2096 87.3634 33.8501C86.5541 31.4905 86.4273 28.8847 87.0026 26.4325C87.5779 23.9803 88.8235 21.8173 90.5481 20.2757C92.2727 18.7341 94.3809 17.899 96.5493 17.8987C96.6278 17.8987 96.7061 17.9 96.7842 17.9022L96.6795 12.9404C96.6361 12.94 96.5928 12.9385 96.5493 12.9385C93.4295 12.9395 90.3978 14.1519 87.9272 16.3865C85.4566 18.6211 83.6862 21.7521 82.8922 25.291C82.0982 28.8298 82.3252 32.5774 83.538 35.949C84.7507 39.3206 86.8809 42.1264 89.5961 43.9287C92.3112 45.7309 95.4587 46.4282 98.5472 45.9117C101.636 45.3952 104.492 43.694 106.669 41.0735C108.847 38.453 110.224 35.0607 110.585 31.4259C110.946 27.7911 110.271 24.1184 108.665 20.9808L105.259 23.9837Z" fill="#AB58FF"/>
<path id="Vector_3" d="M105.259 23.9837L108.665 20.9808C107.421 18.5493 105.666 16.5331 103.567 15.1253C101.469 13.7174 99.0971 12.9651 96.6796 12.9404L96.7843 17.9022C98.5284 17.9501 100.231 18.5378 101.719 19.6058C103.207 20.6737 104.428 22.184 105.259 23.9837Z" fill="#E6E6E6"/>
<path id="Vector_4" d="M103.742 43.7397L103.567 43.9429L108.529 49.8181L108.704 49.615L103.742 43.7397Z" fill="#3F3D56"/>
<path id="Vector_5" d="M106.928 7.77549L103.479 14.9885L103.693 15.1298L107.142 7.91672L106.928 7.77549Z" fill="#3F3D56"/>
<path id="Vector_6" d="M112.33 51.986H105.007C104.877 51.9858 104.752 51.9251 104.66 51.8172C104.568 51.7092 104.516 51.5629 104.516 51.4102V50.2005C104.516 50.0479 104.568 49.9015 104.66 49.7936C104.752 49.6856 104.877 49.6249 105.007 49.6248H112.33C112.46 49.6249 112.585 49.6856 112.677 49.7936C112.769 49.9015 112.821 50.0479 112.821 50.2005V51.4102C112.821 51.5629 112.769 51.7092 112.677 51.8172C112.585 51.9251 112.46 51.9858 112.33 51.986Z" fill="#AB58FF"/>
<path id="Vector_7" d="M110.473 7.94909H103.15C103.02 7.94891 102.896 7.88819 102.803 7.78025C102.711 7.67231 102.66 7.52597 102.66 7.37332V6.16354C102.66 6.0109 102.711 5.86455 102.803 5.75661C102.896 5.64867 103.02 5.58795 103.15 5.58777H110.473C110.604 5.58795 110.728 5.64867 110.82 5.75661C110.912 5.86455 110.964 6.0109 110.964 6.16354V7.37332C110.964 7.52597 110.912 7.67231 110.82 7.78025C110.728 7.88819 110.604 7.94891 110.473 7.94909Z" fill="#E6E6E6"/>
<path id="Vector_8" d="M65.1606 27.1927H12.9417C12.7148 27.1924 12.4972 27.0865 12.3367 26.8983C12.1762 26.7101 12.086 26.4548 12.0857 26.1886V1.57914C12.086 1.31293 12.1762 1.05772 12.3367 0.86949C12.4972 0.681258 12.7148 0.575375 12.9417 0.575073H65.1606C65.3875 0.575384 65.6051 0.681269 65.7656 0.869501C65.9261 1.05773 66.0163 1.31294 66.0166 1.57914V26.1886C66.0163 26.4548 65.9261 26.71 65.7656 26.8983C65.6051 27.0865 65.3875 27.1924 65.1606 27.1927ZM12.9417 0.942536C12.7978 0.942719 12.6599 1.00985 12.5581 1.12919C12.4564 1.24854 12.3991 1.41036 12.399 1.57914V26.1886C12.3991 26.3574 12.4564 26.5192 12.5581 26.6386C12.6599 26.7579 12.7978 26.8251 12.9417 26.8252H65.1606C65.3045 26.825 65.4424 26.7579 65.5442 26.6386C65.6459 26.5192 65.7031 26.3574 65.7033 26.1886V1.57914C65.7031 1.41036 65.6459 1.24855 65.5442 1.12921C65.4424 1.00986 65.3045 0.942728 65.1606 0.942536H12.9417Z" fill="#3F3D56"/>
<path id="Vector_9" d="M33.2974 21.0851H28.238C28.1087 21.0848 27.9837 21.0307 27.8852 20.9325C27.7868 20.8342 27.7213 20.6981 27.7003 20.5485C27.3703 18.0343 27.3703 15.4757 27.7003 12.9615C27.7213 12.8118 27.7868 12.6757 27.8852 12.5775C27.9837 12.4792 28.1087 12.4251 28.238 12.4248H33.2974C33.3794 12.4245 33.4603 12.4461 33.5341 12.4881C33.6079 12.53 33.6725 12.5911 33.7231 12.6668C33.7748 12.7435 33.811 12.833 33.8287 12.9286C33.8465 13.0242 33.8454 13.1232 33.8256 13.2182C33.3523 15.5434 33.3523 17.9665 33.8256 20.2917C33.8454 20.3867 33.8465 20.4858 33.8287 20.5813C33.811 20.6769 33.7748 20.7664 33.7231 20.8432C33.6725 20.9188 33.6079 20.9799 33.5341 21.0219C33.4603 21.0638 33.3794 21.0854 33.2974 21.0851Z" fill="#E6E6E6"/>
<path id="Vector_10" d="M50.2372 21.0851H45.1777C45.0485 21.0848 44.9235 21.0307 44.825 20.9324C44.7266 20.8342 44.661 20.6981 44.6401 20.5485C44.3101 18.0343 44.3101 15.4757 44.6401 12.9615C44.661 12.8118 44.7266 12.6758 44.825 12.5775C44.9235 12.4792 45.0485 12.4251 45.1777 12.4248H50.2372C50.3192 12.4245 50.4001 12.4462 50.4739 12.4881C50.5477 12.53 50.6123 12.5912 50.6629 12.6669C50.7146 12.7436 50.7507 12.8331 50.7685 12.9287C50.7862 13.0242 50.7852 13.1232 50.7653 13.2182C50.2921 15.5434 50.2921 17.9665 50.7653 20.2917C50.7852 20.3867 50.7862 20.4857 50.7685 20.5813C50.7507 20.6768 50.7146 20.7664 50.6629 20.8431C50.6123 20.9188 50.5477 20.9799 50.4739 21.0218C50.4001 21.0638 50.3192 21.0854 50.2372 21.0851Z" fill="#E6E6E6"/>
<path id="Vector_11" d="M24.6917 15.3429H19.6323C19.503 15.3426 19.378 15.2885 19.2795 15.1903C19.1811 15.092 19.1156 14.9559 19.0946 14.8063C18.7646 12.2921 18.7646 9.73346 19.0946 7.21928C19.1156 7.06964 19.1811 6.93356 19.2795 6.83528C19.378 6.737 19.503 6.6829 19.6323 6.68262H24.6917C24.7737 6.68232 24.8546 6.70395 24.9284 6.74588C25.0022 6.78781 25.0668 6.84892 25.1174 6.92458C25.1691 7.0013 25.2052 7.09085 25.223 7.18642C25.2408 7.28198 25.2397 7.38103 25.2199 7.47604C24.7466 9.80118 24.7466 12.2244 25.2199 14.5495C25.2397 14.6445 25.2407 14.7436 25.223 14.8391C25.2052 14.9347 25.1691 15.0242 25.1174 15.101C25.0668 15.1766 25.0022 15.2377 24.9284 15.2797C24.8546 15.3216 24.7737 15.3432 24.6917 15.3429Z" fill="#AB58FF"/>
<path id="Vector_12" d="M41.8019 15.3429H36.7425C36.6605 15.3432 36.5795 15.3216 36.5058 15.2797C36.432 15.2377 36.3673 15.1766 36.3167 15.1009C36.265 15.0242 36.2289 14.9346 36.2112 14.8391C36.1934 14.7435 36.1945 14.6445 36.2143 14.5495C36.6876 12.2244 36.6876 9.80119 36.2143 7.47604C36.1945 7.38105 36.1934 7.28201 36.2112 7.18646C36.2289 7.09091 36.265 7.00138 36.3167 6.92466C36.3673 6.84899 36.432 6.78785 36.5058 6.7459C36.5795 6.70396 36.6605 6.68232 36.7425 6.68262H41.8019C41.9312 6.68291 42.0562 6.737 42.1546 6.83528C42.2531 6.93356 42.3186 7.06964 42.3395 7.21928C42.6696 9.73346 42.6696 12.2921 42.3395 14.8063C42.3186 14.9559 42.2531 15.092 42.1546 15.1903C42.0562 15.2885 41.9312 15.3426 41.8019 15.3429Z" fill="#AB58FF"/>
<path id="Vector_13" d="M58.47 15.3429H53.4106C53.3286 15.3432 53.2476 15.3216 53.1738 15.2797C53.1001 15.2377 53.0354 15.1766 52.9848 15.1009C52.9331 15.0242 52.897 14.9346 52.8793 14.8391C52.8615 14.7435 52.8626 14.6445 52.8824 14.5495C53.3557 12.2244 53.3557 9.80119 52.8824 7.47604C52.8626 7.38105 52.8615 7.28201 52.8793 7.18646C52.897 7.09091 52.9331 7.00138 52.9848 6.92466C53.0354 6.84899 53.1001 6.78785 53.1738 6.7459C53.2476 6.70396 53.3286 6.68232 53.4106 6.68262H58.47C58.5993 6.68293 58.7243 6.73703 58.8227 6.83531C58.9212 6.93358 58.9867 7.06965 59.0077 7.21928C59.3377 9.73347 59.3377 12.2921 59.0077 14.8063C58.9867 14.9559 58.9212 15.092 58.8227 15.1903C58.7243 15.2885 58.5993 15.3426 58.47 15.3429Z" fill="#FF6584"/>
<path id="Vector_14" d="M30.2993 59.0872C30.0582 59.0296 29.8309 58.9107 29.6332 58.7389C29.4356 58.5671 29.2725 58.3466 29.1554 58.0928C29.0382 57.8391 28.97 57.5583 28.9554 57.2702C28.9408 56.9822 28.9802 56.6939 29.0709 56.4256L22.1263 38.936L25.6493 37.7747L31.374 55.3529C31.748 55.5615 32.0439 55.9237 32.2055 56.3711C32.3671 56.8184 32.3832 57.3197 32.2507 57.78C32.1182 58.2403 31.8464 58.6276 31.4868 58.8685C31.1271 59.1094 30.7046 59.1873 30.2993 59.0872Z" fill="#A0616A"/>
<path id="Vector_15" d="M16.8505 86.9957H18.7709L19.6844 78.3074H16.8502L16.8505 86.9957Z" fill="#A0616A"/>
<path id="Vector_16" d="M22.4745 89.087L16.439 89.0874L16.4389 86.3522L20.1425 86.352C20.761 86.3519 21.3541 86.6401 21.7914 87.153C22.2288 87.6659 22.4745 88.3616 22.4745 89.087Z" fill="#2F2E41"/>
<path id="Vector_17" d="M6.86859 84.5675L8.63377 85.4544L12.3903 77.89L9.78491 76.5811L6.86859 84.5675Z" fill="#A0616A"/>
<path id="Vector_18" d="M11.3362 89.0874L5.78822 86.3001L6.70632 83.7859L10.1108 85.4962C10.6793 85.7819 11.1277 86.3207 11.3576 86.9941C11.5874 87.6676 11.5797 88.4206 11.3362 89.0874Z" fill="#2F2E41"/>
<path id="Vector_19" d="M21.5985 30.7311C23.7232 30.7311 25.4457 28.7107 25.4457 26.2184C25.4457 23.7262 23.7232 21.7058 21.5985 21.7058C19.4737 21.7058 17.7512 23.7262 17.7512 26.2184C17.7512 28.7107 19.4737 30.7311 21.5985 30.7311Z" fill="#A0616A"/>
<path id="Vector_20" d="M18.819 84.8716L16.705 84.3991C16.5312 84.3615 16.376 84.2482 16.2705 84.0819C16.1649 83.9157 16.1167 83.7088 16.1357 83.5027L17.5375 67.4706C17.5509 67.3176 17.5171 67.1641 17.4423 67.0378C17.3675 66.9116 17.2566 66.821 17.1297 66.7824C17.0028 66.7439 16.8683 66.7599 16.7506 66.8277C16.6329 66.8954 16.5398 67.0104 16.4882 67.1517L10.3681 83.902C10.3313 84.0026 10.2778 84.0937 10.2108 84.1699C10.1438 84.2461 10.0645 84.3059 9.97759 84.3459C9.89068 84.3858 9.79787 84.4052 9.70454 84.4027C9.61121 84.4003 9.51922 84.3762 9.43392 84.3317L7.71451 83.4353C7.554 83.3524 7.42573 83.2021 7.35495 83.0139C7.28417 82.8257 7.276 82.6132 7.33205 82.4183L11.5178 67.6891C11.5296 67.6477 11.5377 67.6049 11.5421 67.5615L12.9008 54.1038C12.9156 53.9568 12.9638 53.8173 13.0403 53.6996C13.1167 53.582 13.2187 53.4905 13.3355 53.4349L17.6257 51.3907C17.7526 51.3302 17.8918 51.3144 18.0262 51.3452C18.1607 51.376 18.2846 51.4521 18.3827 51.5642L23.7978 57.7488C23.8822 57.8447 23.9447 57.964 23.9796 58.0956C24.0145 58.2272 24.0206 58.367 23.9975 58.5022L19.6423 84.2204C19.6101 84.4079 19.5236 84.5766 19.3975 84.6979C19.2714 84.8192 19.1135 84.8857 18.9504 84.8861C18.9064 84.8861 18.8624 84.8813 18.819 84.8716Z" fill="#2F2E41"/>
<path id="Vector_21" d="M16.4089 54.8459C15.6595 53.828 15.1125 53.366 14.7384 53.4388C14.3672 53.5091 14.1531 54.1174 13.9264 54.7614C13.6169 55.6404 13.2662 56.6367 12.4016 56.7146C12.267 56.7417 12.1286 56.7239 12.0022 56.6631C11.8758 56.6024 11.7666 56.5011 11.6869 56.371C11.0069 55.1846 12.6381 51.2588 12.7871 50.9061L12.7106 32.3381C12.7096 32.1883 12.7433 32.0409 12.8082 31.9119C12.8732 31.7829 12.9668 31.6771 13.0792 31.6058C17.5617 28.7705 23.6143 33.7015 24.7821 34.719C24.8755 34.8002 24.9503 34.9073 24.9998 35.0307C25.0493 35.1541 25.0719 35.29 25.0657 35.4261C24.9248 38.5359 24.2219 54.2256 24.2219 57.7255C24.2219 58.6944 23.937 59.31 23.375 59.5551C23.1853 59.634 22.9851 59.6725 22.7838 59.6688C21.0693 59.6688 18.2611 57.3614 16.4089 54.8459Z" fill="#CCCCCC"/>
<path id="Vector_22" d="M22.6645 45.8297C22.5708 45.7583 22.4931 45.6614 22.4379 45.5474C22.3828 45.4334 22.3518 45.3054 22.3477 45.1744L22.044 36.8577C22.0253 36.3457 22.1626 35.8425 22.4312 35.4383C22.6998 35.0341 23.0823 34.7552 23.5102 34.6516C23.9381 34.5479 24.3835 34.6262 24.7667 34.8725C25.1499 35.1187 25.4459 35.5169 25.6016 35.9957L27.8741 42.9806C27.9405 43.1855 27.9349 43.4129 27.8586 43.613C27.7822 43.8131 27.6414 43.9694 27.4668 44.0478L23.3032 45.9115C23.1989 45.9589 23.0865 45.9762 22.9754 45.9619C22.8642 45.9477 22.7576 45.9023 22.6645 45.8297Z" fill="#CCCCCC"/>
<path id="Vector_23" d="M12.0839 58.8246C11.8798 58.6636 11.7083 58.452 11.5814 58.2048C11.4545 57.9575 11.3754 57.6807 11.3497 57.3937C11.3239 57.1068 11.352 56.8167 11.4322 56.5439C11.5123 56.2711 11.6425 56.0222 11.8135 55.8148L11.0789 36.5405L14.7132 37.0425L14.2913 55.8531C14.5693 56.2132 14.7251 56.6804 14.7291 57.1662C14.733 57.652 14.585 58.1226 14.3129 58.4889C14.0408 58.8552 13.6636 59.0917 13.2528 59.1535C12.842 59.2154 12.4261 59.0984 12.0839 58.8246Z" fill="#A0616A"/>
<path id="Vector_24" d="M9.56025 41.673C9.49437 41.567 9.45118 41.4441 9.43431 41.3144C9.41744 41.1848 9.4274 41.0523 9.46334 40.9282L11.7076 33.031C11.8458 32.5447 12.1269 32.1321 12.5008 31.8667C12.8746 31.6014 13.3168 31.5008 13.7481 31.5829C14.1794 31.665 14.5717 31.9245 14.8548 32.3148C15.1379 32.7052 15.2934 33.201 15.2934 33.7135V41.1896C15.2932 41.4088 15.2189 41.619 15.0867 41.774C14.9546 41.929 14.7754 42.0161 14.5885 42.0164H10.1321C10.0203 42.0171 9.90997 41.9863 9.81045 41.9265C9.71093 41.8667 9.62512 41.7798 9.56025 41.673Z" fill="#CCCCCC"/>
<path id="Vector_25" d="M19.114 29.2536C18.9699 29.386 18.79 29.453 18.6073 29.4423C18.4245 29.4316 18.2512 29.3439 18.1191 29.1954C17.2946 28.2914 16.5987 27.2104 16.2465 25.9585C15.843 24.5239 15.9461 22.8437 16.7189 21.6352C17.3722 20.6137 18.4062 20.0365 19.4247 19.5854C19.8223 19.3882 20.2424 19.2602 20.6716 19.2056C21.1051 19.1528 21.5395 19.2959 21.8862 19.6056C22.0552 19.7639 22.1796 19.9782 22.2432 20.2207C22.3068 20.4631 22.3066 20.7224 22.2427 20.9647C22.765 20.4082 23.4022 20.0216 24.0912 19.843C24.5273 19.7074 24.9882 19.7298 25.4133 19.9072C26.004 20.1922 26.3876 20.8881 26.5645 21.608C26.7107 22.1571 26.7225 22.7433 26.5986 23.3C26.535 23.5767 26.4226 23.8347 26.2687 24.0573C26.1147 24.2798 25.9226 24.462 25.7049 24.592C25.1645 24.8906 24.5231 24.7779 23.9581 24.5506C23.393 24.3232 22.8573 23.9878 22.2729 23.8427C21.6884 23.6977 21.0136 23.7823 20.6001 24.288C20.3088 24.6441 20.1942 25.145 20.09 25.6231L19.5482 28.1097C19.4884 28.4719 19.374 28.8186 19.2104 29.1337C19.183 29.1786 19.1506 29.2189 19.114 29.2536Z" fill="#2F2E41"/>
<path id="Vector_26" d="M34.7167 65.1341H29.6572C29.5279 65.1338 29.4029 65.0797 29.3045 64.9814C29.206 64.8831 29.1405 64.747 29.1196 64.5974C28.7896 62.0832 28.7896 59.5246 29.1196 57.0104C29.1405 56.8608 29.206 56.7247 29.3045 56.6264C29.4029 56.5282 29.5279 56.4741 29.6572 56.4738H34.7167C34.7986 56.4735 34.8796 56.4951 34.9534 56.537C35.0272 56.579 35.0918 56.6401 35.1424 56.7158C35.1941 56.7925 35.2302 56.8821 35.248 56.9776C35.2657 57.0732 35.2646 57.1722 35.2448 57.2672C34.7716 59.5923 34.7716 62.0155 35.2448 64.3407C35.2646 64.4356 35.2657 64.5347 35.248 64.6302C35.2302 64.7258 35.1941 64.8153 35.1424 64.892C35.0918 64.9677 35.0272 65.0288 34.9534 65.0708C34.8796 65.1127 34.7986 65.1344 34.7167 65.1341Z" fill="#AB58FF"/>
<path id="Vector_27" d="M26.2365 89.3173H1.01748C0.975936 89.3173 0.936094 89.2979 0.906718 89.2635C0.877343 89.229 0.86084 89.1823 0.86084 89.1336C0.86084 89.0848 0.877343 89.0381 0.906718 89.0036C0.936094 88.9692 0.975936 88.9498 1.01748 88.9498H26.2365C26.278 88.9498 26.3179 88.9692 26.3473 89.0036C26.3766 89.0381 26.3931 89.0848 26.3931 89.1336C26.3931 89.1823 26.3766 89.229 26.3473 89.2635C26.3179 89.2979 26.278 89.3173 26.2365 89.3173Z" fill="#3F3D56"/>
</g>
</g>
<defs>
<clipPath id="clip0_380_621">
<rect x="0.86084" y="0.391357" width="119.691" height="88.926" rx="10" fill="white"/>
</clipPath>
</defs>
</svg>
