<svg width="101" height="90" viewBox="0 0 101 90" fill="none" xmlns="http://www.w3.org/2000/svg">
<g id="undraw_add_notes_re_ln36 1">
<g clip-path="url(#clip0_383_17)">
<path id="Vector" d="M66.5717 24.0107H50.2007C49.8423 24.0117 49.4884 23.9394 49.1659 23.7994C48.8434 23.6593 48.5607 23.4553 48.3395 23.2026C48.1143 22.9476 47.957 22.65 47.8795 22.3323C47.8021 22.0146 47.8066 21.6852 47.8927 21.3693C49.4015 15.7077 49.4015 9.80732 47.8926 4.14567C47.8066 3.82978 47.8021 3.50047 47.8795 3.1828C47.957 2.86513 48.1143 2.56748 48.3395 2.31247C48.5607 2.05984 48.8433 1.85574 49.1658 1.71572C49.4884 1.57569 49.8423 1.50342 50.2007 1.5044H66.5717C67.137 1.50586 67.6833 1.68701 68.1133 2.01559C68.5434 2.34417 68.8293 2.79884 68.9202 3.29863C69.9976 9.56764 69.9976 15.9475 68.9202 22.2165C68.8293 22.7163 68.5434 23.1709 68.1133 23.4995C67.6833 23.8281 67.137 24.0092 66.5717 24.0107Z" fill="#E6E6E6"/>
<path id="Vector_2" d="M50.2006 2.60792C50.0285 2.6074 49.8585 2.64206 49.7036 2.70925C49.5487 2.77645 49.4129 2.87441 49.3066 2.9957C49.1972 3.11996 49.1208 3.26495 49.0833 3.41963C49.0458 3.57432 49.0482 3.73463 49.0903 3.88836C50.6443 9.7192 50.6443 15.7959 49.0904 21.6267C49.0483 21.7804 49.0459 21.9407 49.0833 22.0953C49.1208 22.25 49.1972 22.395 49.3066 22.5192C49.4129 22.6405 49.5487 22.7386 49.7036 22.8058C49.8585 22.873 50.0285 22.9077 50.2006 22.9072H66.5716C66.8431 22.9072 67.1058 22.821 67.3129 22.6638C67.52 22.5066 67.6581 22.2887 67.7026 22.0488C68.7609 15.8909 68.7609 9.62417 67.7026 3.46627C67.6581 3.22639 67.52 3.00845 67.3129 2.85125C67.1058 2.69406 66.8431 2.60783 66.5716 2.60791L50.2006 2.60792Z" fill="white"/>
<path id="Vector_3" d="M62.9992 7.9142H54.4084C54.0818 7.91388 53.7687 7.79752 53.5378 7.59064C53.3069 7.38377 53.177 7.10328 53.1766 6.81072V6.37949C53.177 6.08692 53.3069 5.80643 53.5378 5.59956C53.7687 5.39268 54.0818 5.27632 54.4084 5.276H62.9992C63.3258 5.27632 63.6389 5.39268 63.8698 5.59956C64.1007 5.80643 64.2306 6.08692 64.231 6.37949V6.81072C64.2306 7.10329 64.1007 7.38378 63.8698 7.59065C63.6389 7.79752 63.3258 7.91388 62.9992 7.9142Z" fill="#E6E6E6"/>
<path id="Vector_4" d="M62.9992 13.363H54.4084C54.0818 13.3627 53.7687 13.2464 53.5378 13.0395C53.3069 12.8326 53.177 12.5521 53.1766 12.2596V11.8283C53.177 11.5358 53.3069 11.2553 53.5378 11.0484C53.7687 10.8415 54.0818 10.7252 54.4084 10.7249H62.9992C63.3258 10.7252 63.6389 10.8415 63.8698 11.0484C64.1007 11.2553 64.2306 11.5358 64.231 11.8283V12.2596C64.2306 12.5521 64.1007 12.8326 63.8698 13.0395C63.6389 13.2464 63.3258 13.3627 62.9992 13.363Z" fill="#E6E6E6"/>
<path id="Vector_5" d="M62.9992 18.8119H54.4084C54.0818 18.8116 53.7687 18.6952 53.5378 18.4883C53.3069 18.2815 53.177 18.001 53.1766 17.7084V17.2772C53.177 16.9846 53.3069 16.7041 53.5378 16.4973C53.7687 16.2904 54.0818 16.174 54.4084 16.1737H62.9992C63.3258 16.174 63.6389 16.2904 63.8698 16.4973C64.1007 16.7041 64.2306 16.9846 64.231 17.2772V17.7084C64.2306 18.001 64.1007 18.2815 63.8698 18.4883C63.6389 18.6952 63.3258 18.8116 62.9992 18.8119Z" fill="#E6E6E6"/>
<path id="Vector_6" d="M97.3669 37.9887H80.9959C80.6375 37.9897 80.2836 37.9174 79.961 37.7774C79.6385 37.6374 79.3559 37.4333 79.1347 37.1807C78.9095 36.9257 78.7521 36.628 78.6747 36.3103C78.5973 35.9926 78.6018 35.6633 78.6878 35.3474C80.1967 29.6857 80.1966 23.7854 78.6877 18.1237C78.6017 17.8078 78.5973 17.4785 78.6747 17.1608C78.7521 16.8432 78.9094 16.5455 79.1346 16.2905C79.3558 16.0379 79.6385 15.8338 79.961 15.6937C80.2835 15.5537 80.6375 15.4814 80.9959 15.4824H97.3669C97.9321 15.4839 98.4784 15.665 98.9085 15.9936C99.3386 16.3222 99.6245 16.7769 99.7153 17.2767C100.793 23.5457 100.793 29.9255 99.7153 36.1945C99.6245 36.6943 99.3386 37.149 98.9085 37.4775C98.4784 37.8061 97.9321 37.9873 97.3669 37.9887Z" fill="#E6E6E6"/>
<path id="Vector_7" d="M80.9959 16.5859C80.8238 16.5854 80.6538 16.6201 80.4989 16.6873C80.344 16.7545 80.2082 16.8524 80.1019 16.9737C79.9925 17.098 79.9161 17.243 79.8786 17.3977C79.8411 17.5523 79.8435 17.7127 79.8856 17.8664C81.4396 23.6972 81.4396 29.7739 79.8857 35.6047C79.8436 35.7584 79.8412 35.9187 79.8786 36.0734C79.9161 36.228 79.9924 36.373 80.1019 36.4972C80.2081 36.6185 80.344 36.7166 80.4989 36.7838C80.6538 36.851 80.8238 36.8857 80.9959 36.8852H97.3669C97.6384 36.8853 97.901 36.799 98.1082 36.6418C98.3153 36.4846 98.4534 36.2667 98.4979 36.0268C99.5562 29.8689 99.5562 23.6022 98.4979 17.4443C98.4534 17.2044 98.3153 16.9865 98.1082 16.8293C97.901 16.6721 97.6384 16.5859 97.3669 16.5859L80.9959 16.5859Z" fill="white"/>
<path id="Vector_8" d="M64.724 53.898H48.353C47.979 53.899 47.6098 53.8236 47.2733 53.6775C46.9368 53.5314 46.642 53.3185 46.4112 53.0549C46.1763 52.789 46.0122 52.4786 45.9315 52.1473C45.8507 51.816 45.8554 51.4726 45.9451 51.1432C47.4502 45.4957 47.4501 39.61 45.945 33.9625C45.8553 33.6331 45.8507 33.2897 45.9315 32.9584C46.0122 32.6272 46.1763 32.3168 46.4111 32.0509C46.6419 31.7873 46.9368 31.5744 47.2733 31.4283C47.6098 31.2822 47.979 31.2068 48.353 31.2078H64.724C65.3137 31.2093 65.8836 31.3984 66.3323 31.7413C66.7809 32.0841 67.0792 32.5585 67.1739 33.0799C68.2529 39.3582 68.2529 45.7475 67.1739 52.0258C67.0792 52.5473 66.7809 53.0217 66.3323 53.3645C65.8836 53.7074 65.3137 53.8964 64.724 53.898Z" fill="#F2F2F2"/>
<path id="Vector_9" d="M93.7944 24.651H85.2036C84.877 24.6507 84.5639 24.5343 84.333 24.3275C84.102 24.1206 83.9722 23.8401 83.9718 23.5475V23.1163C83.9722 22.8237 84.102 22.5432 84.333 22.3364C84.5639 22.1295 84.877 22.0131 85.2036 22.0128H93.7944C94.121 22.0131 94.4341 22.1295 94.665 22.3364C94.8959 22.5432 95.0258 22.8237 95.0262 23.1163V23.5475C95.0258 23.8401 94.8959 24.1206 94.665 24.3275C94.4341 24.5343 94.121 24.6507 93.7944 24.651Z" fill="#E6E6E6"/>
<path id="Vector_10" d="M93.7944 30.0999H85.2036C84.877 30.0995 84.5639 29.9832 84.333 29.7763C84.102 29.5694 83.9722 29.2889 83.9718 28.9964V28.5652C83.9722 28.2726 84.102 27.9921 84.333 27.7852C84.5639 27.5783 84.877 27.462 85.2036 27.4617H93.7944C94.121 27.462 94.4341 27.5783 94.665 27.7852C94.8959 27.9921 95.0258 28.2726 95.0262 28.5652V28.9964C95.0258 29.2889 94.8959 29.5694 94.665 29.7763C94.4341 29.9832 94.121 30.0995 93.7944 30.0999Z" fill="#E6E6E6"/>
<path id="Vector_11" d="M56.5842 46.7071C59.1921 46.7071 61.3062 44.8132 61.3062 42.4769C61.3062 40.1406 59.1921 38.2467 56.5842 38.2467C53.9764 38.2467 51.8623 40.1406 51.8623 42.4769C51.8623 44.8132 53.9764 46.7071 56.5842 46.7071Z" fill="white"/>
<path id="Vector_12" d="M58.8426 41.9252H57.2002V40.4539C57.2002 40.3075 57.1353 40.1672 57.0198 40.0637C56.9043 39.9602 56.7476 39.9021 56.5843 39.9021C56.421 39.9021 56.2643 39.9602 56.1488 40.0637C56.0333 40.1672 55.9684 40.3075 55.9684 40.4539V41.9252H54.326C54.1626 41.9252 54.006 41.9834 53.8905 42.0868C53.775 42.1903 53.7101 42.3307 53.7101 42.477C53.7101 42.6233 53.775 42.7637 53.8905 42.8672C54.006 42.9706 54.1626 43.0288 54.326 43.0288H55.9684V44.5001C55.9684 44.6465 56.0333 44.7868 56.1488 44.8903C56.2643 44.9938 56.421 45.0519 56.5843 45.0519C56.7476 45.0519 56.9043 44.9938 57.0198 44.8903C57.1353 44.7868 57.2002 44.6465 57.2002 44.5001V43.0288H58.8426C59.006 43.0288 59.1626 42.9706 59.2781 42.8672C59.3936 42.7637 59.4585 42.6233 59.4585 42.477C59.4585 42.3307 59.3936 42.1903 59.2781 42.0868C59.1626 41.9834 59.006 41.9252 58.8426 41.9252Z" fill="#E6E6E6"/>
<path id="Vector_13" d="M62.538 3.57759H53.9153C53.6704 3.57734 53.4356 3.49007 53.2624 3.33491C53.0892 3.17975 52.9917 2.96937 52.9915 2.74994V1.27857C52.9917 1.05914 53.0892 0.848773 53.2624 0.693613C53.4356 0.538452 53.6704 0.451175 53.9153 0.450928H62.538C62.7829 0.451175 63.0177 0.538452 63.1909 0.693613C63.3641 0.848773 63.4615 1.05914 63.4618 1.27857V2.74994C63.4615 2.96937 63.3641 3.17975 63.1909 3.33491C63.0177 3.49007 62.7829 3.57734 62.538 3.57759Z" fill="#CCCCCC"/>
<path id="Vector_14" d="M93.7438 17.7396H85.1211C84.8762 17.7393 84.6414 17.6521 84.4682 17.4969C84.295 17.3417 84.1975 17.1314 84.1973 16.9119V15.4406C84.1975 15.2211 84.295 15.0108 84.4682 14.8556C84.6414 14.7004 84.8762 14.6132 85.1211 14.6129H93.7438C93.9887 14.6132 94.2235 14.7004 94.3967 14.8556C94.5699 15.0108 94.6674 15.2211 94.6676 15.4406V16.9119C94.6674 17.1314 94.5699 17.3417 94.3967 17.4969C94.2235 17.6521 93.9887 17.7393 93.7438 17.7396Z" fill="#CCCCCC"/>
<path id="Vector_15" d="M18.97 87.0891H21.487L22.2739 78.3918H18.9696L18.97 87.0891Z" fill="#FFB8B8"/>
<path id="Vector_16" d="M18.328 86.353L23.2848 86.3528H23.285C23.6998 86.3528 24.1106 86.426 24.4938 86.5682C24.8771 86.7104 25.2253 86.9188 25.5186 87.1816C25.812 87.4444 26.0446 87.7563 26.2034 88.0997C26.3621 88.443 26.4438 88.811 26.4438 89.1826V89.2746L18.3282 89.2749L18.328 86.353Z" fill="#2F2E41"/>
<path id="Vector_17" d="M5.42009 87.0891H7.93708L9.1346 78.3918H5.41968L5.42009 87.0891Z" fill="#FFB8B8"/>
<path id="Vector_18" d="M4.7782 86.353L9.73495 86.3528H9.73516C10.15 86.3528 10.5608 86.426 10.944 86.5682C11.3273 86.7104 11.6755 86.9188 11.9688 87.1816C12.2621 87.4444 12.4948 87.7563 12.6536 88.0997C12.8123 88.443 12.894 88.811 12.894 89.1826V89.2746L4.77835 89.2749L4.7782 86.353Z" fill="#2F2E41"/>
<path id="Vector_19" d="M5.86664 84.3416C5.60989 84.3416 5.36255 84.255 5.17375 84.0991C5.0724 84.0163 4.99077 83.916 4.93377 83.8042C4.87677 83.6924 4.84557 83.5714 4.84204 83.4486L3.83264 51.0392L18.165 54.249L22.5871 66.1336C23.1573 67.6625 23.4042 69.2732 23.3149 70.8832L22.7658 82.4034C22.7533 82.6394 22.6398 82.8621 22.4489 83.025C22.2579 83.188 22.0042 83.2789 21.7405 83.2787H19.3366C19.0885 83.2778 18.8491 83.1968 18.6622 83.0505C18.4754 82.9042 18.3537 82.7025 18.3194 82.4824L16.6012 69.7658C16.4511 68.7737 16.0637 67.8224 15.4656 66.9768L12.0844 62.1808C12.0618 62.1488 12.0287 62.1238 11.9896 62.1092C11.9505 62.0947 11.9074 62.0913 11.8661 62.0996C11.8248 62.1078 11.7874 62.1273 11.7589 62.1554C11.7305 62.1834 11.7124 62.2186 11.7071 62.2562L9.05366 83.4234C9.02517 83.6381 8.91305 83.8369 8.73703 83.9848C8.56102 84.1328 8.33239 84.2203 8.09141 84.232L5.92508 84.34C5.90558 84.341 5.88614 84.3416 5.86664 84.3416Z" fill="#2F2E41"/>
<path id="Vector_20" d="M15.78 30.0562C18.5648 30.0562 20.8224 28.0337 20.8224 25.5389C20.8224 23.0441 18.5648 21.0216 15.78 21.0216C12.9951 21.0216 10.7375 23.0441 10.7375 25.5389C10.7375 28.0337 12.9951 30.0562 15.78 30.0562Z" fill="#FFB8B8"/>
<path id="Vector_21" d="M18.0964 55.567C18.0096 55.5669 17.9232 55.5571 17.8391 55.5378L3.61892 52.2714C3.36468 52.213 3.14505 52.0697 3.00518 51.8707C2.86531 51.6718 2.81583 51.4324 2.86693 51.2018L6.13268 35.4414C6.33615 34.5304 6.78338 33.6772 7.43598 32.9551C8.08858 32.2331 8.92704 31.6637 9.87938 31.2959C10.8073 30.928 11.8221 30.7703 12.8341 30.8369C13.8462 30.9035 14.8243 31.1922 15.6824 31.6776C15.8814 31.7888 16.082 31.9102 16.2783 32.0382C17.0684 32.5604 17.7128 33.2395 18.1609 34.0223C18.6089 34.805 18.8485 35.6701 18.8607 36.5497L19.1204 54.6344C19.1221 54.756 19.097 54.8768 19.0463 54.9896C18.9957 55.1025 18.9206 55.2052 18.8254 55.292C18.7302 55.3787 18.6167 55.4476 18.4916 55.4948C18.3665 55.5421 18.2321 55.5666 18.0964 55.567Z" fill="#6C63FF"/>
<path id="Vector_22" d="M5.08203 55.7524C4.9124 55.5287 4.79956 55.2745 4.75147 55.0076C4.70338 54.7406 4.72121 54.4675 4.80369 54.2074C4.88618 53.9473 5.03131 53.7066 5.22888 53.5022C5.42644 53.2978 5.67163 53.1347 5.94717 53.0244L5.31468 46.4764L8.66643 48.1039L8.75319 54.0724C8.9294 54.4994 8.92466 54.9694 8.73987 55.3935C8.55507 55.8175 8.20306 56.1661 7.75054 56.3732C7.29803 56.5803 6.77644 56.6314 6.28462 56.517C5.79279 56.4026 5.3649 56.1305 5.08203 55.7524Z" fill="#FFB8B8"/>
<path id="Vector_23" d="M6.27956 52.1584C6.18498 52.1583 6.09079 52.1476 5.99917 52.1266C5.80211 52.0816 5.6223 51.9897 5.47875 51.8606C5.33521 51.7315 5.23328 51.5701 5.18373 51.3934L3.53656 45.5293C2.96092 43.4812 3.23533 41.3155 4.30875 39.4351L7.75962 33.3874C7.97776 32.6634 8.50484 32.0451 9.22718 31.666C9.94952 31.2869 10.8092 31.1773 11.6209 31.3609C12.0255 31.4524 12.4058 31.615 12.7397 31.8392C13.0736 32.0633 13.3545 32.3447 13.5661 32.6668C13.7821 32.9936 13.9234 33.3556 13.9817 33.7318C14.04 34.108 14.0142 34.4908 13.9057 34.8579L8.99338 44.6988L9.05173 50.5908C9.05324 50.7987 8.98347 51.0019 8.85186 51.1731C8.72025 51.3443 8.53315 51.4752 8.31583 51.548L6.67192 52.095C6.54639 52.1369 6.41351 52.1583 6.27956 52.1584Z" fill="#6C63FF"/>
<path id="Vector_24" d="M29.7938 53.3438C29.4939 53.3131 29.2052 53.2239 28.948 53.0824C28.6908 52.941 28.4714 52.7507 28.3051 52.525C28.1389 52.2993 28.0299 52.0438 27.9859 51.7763C27.9418 51.5088 27.9638 51.2359 28.0502 50.9768L22.0978 47.1349L25.6611 45.9207L30.7673 49.7552C31.2435 49.9141 31.6381 50.2239 31.8763 50.626C32.1145 51.0281 32.1798 51.4946 32.0598 51.9369C31.9398 52.3792 31.6428 52.7668 31.2252 53.0261C30.8076 53.2854 30.2983 53.3984 29.7938 53.3438Z" fill="#FFB8B8"/>
<path id="Vector_25" d="M26.6778 50.5383C26.5023 50.5382 26.3292 50.5016 26.1722 50.4314L20.1365 47.7246C18.0284 46.7793 16.3751 45.1803 15.4843 43.2249L12.6188 36.9365C12.1486 36.316 11.9694 35.5548 12.1198 34.817C12.2703 34.0792 12.7384 33.4239 13.4231 32.9925C13.7653 32.7769 14.1519 32.6246 14.5604 32.5443C14.9689 32.4639 15.3912 32.4573 15.8027 32.5247C16.2189 32.5917 16.6162 32.7321 16.9714 32.9377C17.3267 33.1433 17.6329 33.41 17.8723 33.7224L22.9935 43.4775L28.0164 47.2815C28.1932 47.416 28.3197 47.596 28.3787 47.797C28.4377 47.9981 28.4264 48.2105 28.3462 48.4056L27.7365 49.8785C27.6569 50.0716 27.5131 50.2383 27.3245 50.3559C27.1349 50.4747 26.9091 50.5384 26.6778 50.5383Z" fill="#6C63FF"/>
<path id="Vector_26" d="M14.7211 30.1253C14.989 30.2303 15.5376 28.3179 15.2919 27.9354C14.9264 27.3665 14.948 27.3706 14.7053 26.9942C14.4627 26.6179 14.4084 26.1027 14.7226 25.7716C15.0368 25.4404 15.7639 25.4844 15.9073 25.8996C15.8151 25.1109 16.6858 24.477 17.5483 24.2989C18.4108 24.1207 19.3205 24.2313 20.1878 24.0728C21.1942 23.8888 22.2414 23.133 21.8399 22.1415C21.771 21.9764 21.6678 21.8245 21.5358 21.6938C21.0718 21.2265 20.4228 21.0269 19.7883 20.834C18.4682 20.4326 17.112 20.0262 15.7188 20.0705C14.5709 20.1242 13.4653 20.4766 12.5375 21.0845C11.6096 21.6924 10.8997 22.5294 10.4946 23.4931C10.3986 23.7342 10.3242 23.9818 10.2722 24.2334C9.79398 26.5369 11.2871 28.809 13.7122 29.6862L14.7211 30.1253Z" fill="#2F2E41"/>
<path id="Vector_27" opacity="0.2" d="M8.76733 50.7245L8.88169 44.6682L12.4628 38.2179L9.58854 44.8391L8.76733 50.7245Z" fill="black"/>
<path id="Vector_28" d="M41.2413 65.9236L26.1232 60.2965C25.7919 60.1742 25.496 59.9858 25.2581 59.7456C25.0203 59.5054 24.8467 59.2198 24.7506 58.9105C24.6518 58.5976 24.634 58.2686 24.6986 57.9486C24.7631 57.6286 24.9083 57.3261 25.1231 57.0639C28.9413 52.3542 31.4683 46.9054 32.4997 41.1584C32.5555 40.8372 32.6924 40.5315 32.9 40.2648C33.1076 39.9981 33.3803 39.7772 33.6975 39.6192C34.01 39.4619 34.3584 39.3706 34.7162 39.3521C35.074 39.3337 35.4318 39.3886 35.7624 39.5127L50.8804 45.1399C51.4018 45.3355 51.8287 45.6906 52.0851 46.1418C52.3415 46.5931 52.4108 47.1112 52.2807 47.604C50.5907 53.7635 47.8583 59.6551 44.1784 65.074C43.8805 65.5043 43.4217 65.8259 42.8838 65.9815C42.346 66.1371 41.7639 66.1166 41.2413 65.9236Z" fill="#E6E6E6"/>
<path id="Vector_29" d="M35.2898 40.5318C35.1311 40.4722 34.9593 40.4457 34.7874 40.4545C34.6156 40.4633 34.4483 40.5071 34.2982 40.5826C34.1439 40.6597 34.0112 40.7674 33.9104 40.8973C33.8095 41.0273 33.7431 41.1762 33.7161 41.3326C32.6539 47.2513 30.0513 52.8629 26.1191 57.7134C26.0144 57.8408 25.9435 57.988 25.9119 58.1437C25.8802 58.2994 25.8886 58.4595 25.9365 58.6118C25.9826 58.7604 26.0661 58.8977 26.1804 59.013C26.2946 59.1283 26.4368 59.2187 26.5959 59.2774L41.714 64.9046C41.9646 64.998 42.2441 65.0086 42.5027 64.9346C42.7613 64.8607 42.9822 64.7069 43.126 64.5007C46.7406 59.1778 49.4246 53.3907 51.0846 47.3404C51.1463 47.1035 51.1121 46.8548 50.9881 46.6385C50.8642 46.4221 50.6586 46.2522 50.4079 46.159L35.2898 40.5318Z" fill="white"/>
<path id="Vector_30" d="M43.3395 53.0582L35.4062 50.1053C35.1048 49.9928 34.8655 49.7777 34.7408 49.5073C34.6162 49.2369 34.6163 48.9332 34.7413 48.6629L34.926 48.2647C35.0516 47.9946 35.2917 47.7803 35.5936 47.6686C35.8954 47.5569 36.2344 47.5571 36.5361 47.669L44.4694 50.622C44.7709 50.7345 45.0102 50.9496 45.1348 51.22C45.2595 51.4904 45.2593 51.7941 45.1343 52.0644L44.9496 52.4626C44.824 52.7326 44.5839 52.947 44.2821 53.0587C43.9802 53.1704 43.6413 53.1702 43.3395 53.0582Z" fill="#6C63FF"/>
<path id="Vector_31" d="M41.0058 58.09L33.0725 55.1371C32.771 55.0245 32.5317 54.8094 32.4071 54.539C32.2824 54.2686 32.2826 53.9649 32.4076 53.6946L32.5923 53.2964C32.7179 53.0264 32.958 52.812 33.2598 52.7003C33.5617 52.5887 33.9006 52.5888 34.2024 52.7008L42.1357 55.6537C42.4372 55.7662 42.6764 55.9813 42.8011 56.2517C42.9257 56.5221 42.9256 56.8258 42.8006 57.0961L42.6159 57.4943C42.4903 57.7644 42.2502 57.9788 41.9483 58.0904C41.6465 58.2021 41.3075 58.2019 41.0058 58.09Z" fill="#6C63FF"/>
<path id="Vector_32" d="M46.5184 45.9865C46.3996 45.9864 46.282 45.9658 46.172 45.9257L38.178 43.0303C37.951 42.9478 37.7698 42.788 37.6742 42.586C37.5785 42.384 37.5762 42.1563 37.6677 41.9528L38.2834 40.5886C38.3752 40.3852 38.5536 40.2227 38.7791 40.137C39.0047 40.0513 39.259 40.0494 39.4862 40.1316L47.4802 43.027C47.7071 43.1095 47.8883 43.2693 47.984 43.4713C48.0796 43.6733 48.082 43.901 47.9904 44.1045L47.3748 45.4687C47.3056 45.6214 47.1872 45.7523 47.0347 45.8445C46.8821 45.9367 46.7024 45.9862 46.5184 45.9865Z" fill="#CCCCCC"/>
<path id="Vector_33" d="M29.7286 89.3769H0.986429C0.93198 89.3769 0.879764 89.3575 0.841262 89.323C0.802761 89.2885 0.781128 89.2417 0.781128 89.193C0.781128 89.1442 0.802761 89.0974 0.841262 89.0629C0.879764 89.0284 0.93198 89.009 0.986429 89.009H29.7286C29.7831 89.009 29.8353 89.0284 29.8738 89.0629C29.9123 89.0974 29.9339 89.1442 29.9339 89.193C29.9339 89.2417 29.9123 89.2885 29.8738 89.323C29.8353 89.3575 29.7831 89.3769 29.7286 89.3769Z" fill="#CCCCCC"/>
</g>
</g>
<defs>
<clipPath id="clip0_383_17">
<rect x="0.781128" y="0.450928" width="99.7423" height="88.926" rx="10" fill="white"/>
</clipPath>
</defs>
</svg>
