<svg width="121" height="90" viewBox="0 0 121 90" fill="none" xmlns="http://www.w3.org/2000/svg">
<g id="undraw_booked_re_vtod 1">
<g clip-path="url(#clip0_380_724)">
<g id="Group 7">
<path id="Path 149" d="M70.3438 89.4574C70.3265 89.4296 69.9109 88.7582 69.7668 87.364C69.6348 86.085 69.7196 83.9291 70.8747 80.9218C73.0627 75.2246 70.3704 70.6278 70.3429 70.582L70.4758 70.5074C70.994 71.4679 71.3685 72.4948 71.5878 73.5573C72.1301 76.0315 71.9327 78.6042 71.0187 80.9736C68.8344 86.6611 70.4583 89.3535 70.4749 89.3801L70.3438 89.4574Z" fill="#F2F2F2"/>
<path id="Ellipse 19" d="M69.4883 70.2476C70.0395 70.2476 70.4862 69.8151 70.4862 69.2816C70.4862 68.7481 70.0395 68.3156 69.4883 68.3156C68.9372 68.3156 68.4905 68.7481 68.4905 69.2816C68.4905 69.8151 68.9372 70.2476 69.4883 70.2476Z" fill="#F2F2F2"/>
<path id="Ellipse 20" d="M72.6353 73.8142C73.1864 73.8142 73.6332 73.3817 73.6332 72.8482C73.6332 72.3147 73.1864 71.8822 72.6353 71.8822C72.0842 71.8822 71.6375 72.3147 71.6375 72.8482C71.6375 73.3817 72.0842 73.8142 72.6353 73.8142Z" fill="#F2F2F2"/>
<path id="Ellipse 21" d="M70.4862 76.1922C71.0373 76.1922 71.484 75.7597 71.484 75.2262C71.484 74.6926 71.0373 74.2601 70.4862 74.2601C69.935 74.2601 69.4883 74.6926 69.4883 75.2262C69.4883 75.7597 69.935 76.1922 70.4862 76.1922Z" fill="#F2F2F2"/>
<path id="Ellipse 22" d="M73.0959 78.1984C73.647 78.1984 74.0938 77.7659 74.0938 77.2324C74.0938 76.6989 73.647 76.2664 73.0959 76.2664C72.5448 76.2664 72.098 76.6989 72.098 77.2324C72.098 77.7659 72.5448 78.1984 73.0959 78.1984Z" fill="#F2F2F2"/>
<path id="Ellipse 23" d="M69.7186 81.3192C70.2697 81.3192 70.7164 80.8867 70.7164 80.3532C70.7164 79.8197 70.2697 79.3872 69.7186 79.3872C69.1675 79.3872 68.7207 79.8197 68.7207 80.3532C68.7207 80.8867 69.1675 81.3192 69.7186 81.3192Z" fill="#F2F2F2"/>
<path id="Path 150" d="M70.9467 89.4926C70.9467 89.4926 69.9488 87.1149 72.9423 85.3314L70.9467 89.4926Z" fill="#F2F2F2"/>
<path id="Path 151" d="M69.7196 89.4498C69.7196 89.4498 69.2655 86.9213 65.7506 86.9429L69.7196 89.4498Z" fill="#F2F2F2"/>
</g>
<path id="Path 140" d="M18.0052 19.1815C17.2073 19.1815 16.4273 18.9525 15.7639 18.5233C15.1005 18.0942 14.5835 17.4843 14.2781 16.7707C13.9728 16.0571 13.8929 15.2718 14.0486 14.5143C14.2042 13.7567 14.5884 13.0609 15.1526 12.5147C15.7168 11.9685 16.4356 11.5966 17.2181 11.4459C18.0007 11.2952 18.8118 11.3725 19.5489 11.6681C20.2861 11.9637 20.9161 12.4643 21.3594 13.1065C21.8027 13.7487 22.0392 14.5038 22.0392 15.2762C22.0392 16.3119 21.6142 17.3053 20.8577 18.0377C20.1012 18.7701 19.0751 19.1815 18.0052 19.1815ZM18.0052 11.5056C17.2348 11.5056 16.4817 11.7268 15.8412 12.1411C15.2007 12.5554 14.7014 13.1443 14.4066 13.8333C14.1118 14.5224 14.0347 15.2805 14.185 16.012C14.3353 16.7434 14.7062 17.4153 15.251 17.9426C15.7957 18.47 16.4897 18.8291 17.2453 18.9746C18.0008 19.1201 18.784 19.0454 19.4957 18.76C20.2074 18.4746 20.8158 17.9913 21.2437 17.3712C21.6717 16.7511 21.9002 16.0221 21.9002 15.2763C21.9002 14.7812 21.7994 14.2908 21.6037 13.8333C21.4079 13.3759 21.121 12.9602 20.7594 12.61C20.3977 12.2599 19.9683 11.9822 19.4957 11.7927C19.0232 11.6032 18.5167 11.5056 18.0052 11.5056Z" fill="#3F3D56"/>
<path id="Path 174" d="M58.8986 19.1815C58.1007 19.1815 57.3208 18.9525 56.6574 18.5233C55.994 18.0942 55.4769 17.4843 55.1716 16.7707C54.8662 16.0571 54.7864 15.2718 54.942 14.5143C55.0977 13.7567 55.4819 13.0609 56.0461 12.5147C56.6102 11.9685 57.329 11.5966 58.1116 11.4459C58.8941 11.2952 59.7052 11.3725 60.4424 11.6681C61.1795 11.9637 61.8095 12.4643 62.2528 13.1065C62.6961 13.7487 62.9327 14.5038 62.9327 15.2762C62.9327 16.3119 62.5077 17.3053 61.7511 18.0377C60.9946 18.7701 59.9685 19.1815 58.8986 19.1815ZM58.8986 11.5056C58.1282 11.5056 57.3752 11.7268 56.7346 12.1411C56.0941 12.5554 55.5949 13.1443 55.3001 13.8333C55.0053 14.5224 54.9281 15.2805 55.0784 16.012C55.2287 16.7434 55.5997 17.4153 56.1444 17.9426C56.6891 18.47 57.3832 18.8291 58.1387 18.9746C58.8943 19.1201 59.6774 19.0454 60.3891 18.76C61.1009 18.4746 61.7092 17.9913 62.1372 17.3712C62.5652 16.7511 62.7936 16.0221 62.7936 15.2763C62.7936 14.7812 62.6929 14.2908 62.4971 13.8333C62.3014 13.3759 62.0145 12.9602 61.6528 12.61C61.2911 12.2599 60.8617 11.9822 60.3891 11.7927C59.9166 11.6032 59.4101 11.5056 58.8986 11.5056Z" fill="#3F3D56"/>
<path id="Path 146" d="M73.6686 10.1175H3.39362C2.02556 10.1197 0.916912 11.4456 0.915039 13.082V45.5167C0.916912 47.153 2.02556 48.4783 3.39362 48.4813H73.6686C75.0367 48.479 76.1453 47.1531 76.1472 45.5167V13.0819C76.1453 11.4456 75.0367 10.1203 73.6686 10.1173V10.1175ZM75.856 45.5167C75.8544 46.9606 74.8762 48.1307 73.6689 48.1324H3.39362C2.18632 48.1306 1.20847 46.9606 1.2066 45.5167V13.0819C1.208 11.638 2.18632 10.4679 3.39362 10.4662H73.6686C74.8759 10.468 75.8538 11.638 75.8556 13.0819L75.856 45.5167Z" fill="#3F3D56"/>
<path id="Rectangle 21" d="M18.5523 23.1628H6.0658V31.6244H18.5523V23.1628Z" fill="#F2F2F2"/>
<path id="Rectangle 30" d="M36.0334 23.1628H23.5469V31.6244H36.0334V23.1628Z" fill="#F2F2F2"/>
<path id="Rectangle 31" d="M53.5146 23.1628H41.0281V31.6244H53.5146V23.1628Z" fill="#F2F2F2"/>
<path id="Rectangle 32" d="M70.9957 23.1628H58.5092V31.6244H70.9957V23.1628Z" fill="#F2F2F2"/>
<path id="Rectangle 33" d="M18.5523 35.5531H6.0658V44.0147H18.5523V35.5531Z" fill="#F2F2F2"/>
<path id="Rectangle 34" d="M36.0334 35.5531H23.5469V44.0147H36.0334V35.5531Z" fill="#F2F2F2"/>
<path id="Rectangle 35" d="M53.5146 35.5531H41.0281V44.0147H53.5146V35.5531Z" fill="#F2F2F2"/>
<path id="Rectangle 36" d="M70.9957 35.5531H58.5092V44.0147H70.9957V35.5531Z" fill="#F2F2F2"/>
<path id="Path 168" d="M27.7063 43.9654L24.7587 40.0246L25.5615 39.4619L27.8179 42.4783L36.4518 33.891L37.162 34.5604L27.7063 43.9654Z" fill="#AB58FF"/>
<path id="Path 176" d="M45.3436 31.5752L42.396 27.6343L43.1989 27.0716L45.4552 30.088L54.0892 21.5007L54.7993 22.1701L45.3436 31.5752Z" fill="#AB58FF"/>
<path id="Rectangle 38" d="M18.0585 0.789795H17.8451V15.2939H18.0585V0.789795Z" fill="#2F2E41"/>
<path id="Rectangle 40" d="M59.1079 0.789795H58.8945V15.2939H59.1079V0.789795Z" fill="#2F2E41"/>
<path id="Path 88" d="M120.377 89.7154H61.1829C61.1536 89.7172 61.1242 89.7133 61.0965 89.7037C61.0688 89.6941 61.0435 89.6792 61.0221 89.6597C61.0006 89.6403 60.9835 89.6168 60.9718 89.5907C60.9601 89.5646 60.9541 89.5365 60.9541 89.5081C60.9541 89.4796 60.9601 89.4515 60.9718 89.4254C60.9835 89.3993 61.0006 89.3758 61.0221 89.3564C61.0435 89.3369 61.0688 89.322 61.0965 89.3124C61.1242 89.3028 61.1536 89.2989 61.1829 89.3007H120.377C120.406 89.2989 120.436 89.3028 120.463 89.3124C120.491 89.322 120.516 89.3369 120.538 89.3564C120.559 89.3758 120.576 89.3993 120.588 89.4254C120.6 89.4515 120.606 89.4796 120.606 89.5081C120.606 89.5365 120.6 89.5646 120.588 89.5907C120.576 89.6168 120.559 89.6403 120.538 89.6597C120.516 89.6792 120.491 89.6941 120.463 89.7037C120.436 89.7133 120.406 89.7172 120.377 89.7154Z" fill="#3F3D56"/>
<path id="Path 238" d="M10.3812 31.5752L7.43359 27.6343L8.23648 27.0716L10.4928 30.088L19.1268 21.5007L19.8369 22.1701L10.3812 31.5752Z" fill="#AB58FF"/>
<g id="Group 8">
<path id="Path 200" d="M103.343 57.1178C103.426 57.094 103.511 57.0764 103.596 57.0654L107.015 50.3415L105.971 48.827L108.126 47.0037L110.835 50.213L105.318 57.9868C105.454 58.2809 105.494 58.6081 105.433 58.9249C105.372 59.2417 105.213 59.5331 104.977 59.7603C104.741 59.9875 104.439 60.1398 104.112 60.1968C103.784 60.2538 103.446 60.2129 103.143 60.0795C102.84 59.9461 102.587 59.7266 102.416 59.4501C102.245 59.1737 102.165 58.8533 102.186 58.5318C102.208 58.2103 102.331 57.9027 102.537 57.6502C102.744 57.3976 103.025 57.2119 103.343 57.1178Z" fill="#FFB8B8"/>
<path id="Path 201" d="M109.178 47.9337C109.132 47.9811 109.078 48.0218 109.02 48.0546L105.523 50.0172C105.361 50.1076 105.17 50.1324 104.99 50.086C104.81 50.0396 104.656 49.9259 104.563 49.7699C104.553 49.7536 104.544 49.7369 104.536 49.7198L102.834 46.2411C102.762 46.0947 102.746 45.928 102.79 45.7714C102.834 45.6148 102.935 45.4788 103.074 45.3881L105.242 43.9605C105.377 43.8714 105.541 43.8308 105.703 43.8458C105.866 43.8608 106.019 43.9305 106.134 44.0427L109.164 46.9863C109.293 47.1115 109.367 47.2804 109.37 47.4573C109.372 47.6341 109.303 47.805 109.178 47.9335L109.178 47.9337Z" fill="#CCCCCC"/>
<path id="Path 202" d="M114.089 86.4597L112.242 86.9461L109.426 80.2826L112.151 79.5647L114.089 86.4597Z" fill="#FFB8B8"/>
<path id="Path 203" d="M110.78 86.7819L114.341 85.844L114.951 88.0139L109.148 89.5424C108.986 88.9668 109.067 88.3525 109.373 87.8347C109.679 87.3169 110.185 86.938 110.78 86.7813L110.78 86.7819Z" fill="#2F2E41"/>
<path id="Path 204" d="M98.3039 87.8237H96.3902L95.4797 80.6785H98.3039V87.8237Z" fill="#FFB8B8"/>
<path id="Path 205" d="M95.0235 87.2943H98.7139V89.5439H92.7C92.6999 89.2485 92.76 88.956 92.8768 88.6831C92.9935 88.4101 93.1646 88.1621 93.3804 87.9533C93.5961 87.7444 93.8523 87.5787 94.1342 87.4656C94.4161 87.3525 94.7184 87.2943 95.0235 87.2943Z" fill="#2F2E41"/>
<path id="Ellipse 33" d="M100.32 41.5886C102.437 41.5886 104.153 39.927 104.153 37.8774C104.153 35.8278 102.437 34.1663 100.32 34.1663C98.2028 34.1663 96.4865 35.8278 96.4865 37.8774C96.4865 39.927 98.2028 41.5886 100.32 41.5886Z" fill="#FFB8B8"/>
<path id="Path 206" d="M98.1866 82.7293H95.5718C95.3929 82.7291 95.2208 82.6631 95.0903 82.5446C94.9599 82.4261 94.8809 82.264 94.8694 82.0912C94.0903 70.0997 94.546 61.4979 96.3038 55.0212C96.3115 54.9928 96.321 54.965 96.3322 54.9378L96.4727 54.5989C96.5245 54.4724 96.6144 54.364 96.7307 54.2877C96.8471 54.2115 96.9845 54.1709 97.125 54.1714H102.502C102.604 54.1713 102.704 54.1925 102.796 54.2335C102.888 54.2744 102.97 54.3342 103.036 54.4088L103.766 55.2338C103.78 55.2498 103.794 55.2663 103.806 55.2835C107.1 59.7298 110.051 68.4222 113.47 80.1059C113.52 80.2757 113.5 80.4578 113.414 80.6136C113.328 80.7693 113.182 80.8862 113.008 80.9395L110.199 81.8101C110.037 81.8593 109.863 81.8508 109.708 81.7861C109.552 81.7215 109.426 81.605 109.352 81.4578L102.059 66.8151C102.008 66.7128 101.925 66.6291 101.821 66.5764C101.717 66.5237 101.598 66.5048 101.482 66.5225C101.366 66.5403 101.259 66.5937 101.177 66.6748C101.095 66.756 101.042 66.8606 101.026 66.9732L98.8826 82.1414C98.8591 82.304 98.7758 82.453 98.6479 82.561C98.5201 82.669 98.3563 82.7288 98.1866 82.7293Z" fill="#2F2E41"/>
<path id="Path 207" d="M103.471 55.2942H103.449L96.9172 55.0941C96.7492 55.0896 96.5886 55.0268 96.4645 54.9171C96.3405 54.8074 96.2613 54.6582 96.2415 54.4967C95.4142 48.0083 97.6843 46.2701 98.6991 45.8236C98.7839 45.7865 98.8574 45.7289 98.9124 45.6563C98.9674 45.5837 99.0021 45.4985 99.0132 45.4091L99.1011 44.7291C99.116 44.609 99.1639 44.495 99.2398 44.3988C100.831 42.4036 103.003 41.7646 104.156 41.5615C104.339 41.5296 104.528 41.5695 104.681 41.6723C104.833 41.7751 104.938 41.9324 104.971 42.1096C104.973 42.1208 104.974 42.132 104.976 42.1432L105.108 43.1198C105.121 43.2129 105.159 43.301 105.219 43.3753C108.537 47.5747 104.84 53.775 104.066 54.9754C104.002 55.0728 103.915 55.1531 103.811 55.2089C103.707 55.2646 103.59 55.294 103.471 55.2942Z" fill="#CCCCCC"/>
<path id="Path 239" d="M101.416 63.404L96.4809 64.3247L96.2934 63.3824L100.071 62.6776L95.6804 51.4731L96.6072 51.1329L101.416 63.404Z" fill="#AB58FF"/>
<path id="Path 208" d="M108.054 38.2953C107.199 37.1296 106.174 36.0902 105.01 35.2098C104.042 34.4783 102.965 33.8532 101.778 33.5544C100.59 33.2555 99.2774 33.3063 98.1936 33.864C97.1098 34.4217 95.989 35.5298 95.9821 36.7181C95.9799 37.0999 96.0803 37.6164 96.4686 37.5503L96.581 37.5655L99.3915 37.0159L100.589 41.0376C100.673 41.3201 100.786 41.6361 101.063 41.7565C101.324 41.87 101.624 41.763 101.89 41.6563C101.933 41.6388 102.306 40.828 102.306 40.828C102.316 40.8027 102.332 40.7802 102.353 40.7629C102.374 40.7457 102.4 40.7342 102.427 40.7298C102.455 40.7253 102.483 40.7281 102.509 40.7377C102.535 40.7473 102.558 40.7635 102.575 40.7845L102.797 41.0527C102.839 41.104 102.897 41.1406 102.963 41.157C103.029 41.1733 103.098 41.1686 103.161 41.1434L107.744 39.291C107.955 39.2056 108.191 39.0946 108.253 38.8808C108.31 38.6751 108.181 38.4684 108.054 38.2953Z" fill="#2F2E41"/>
<path id="Path 211" d="M102.862 64.5165C103.063 64.3803 103.23 64.2031 103.352 63.9974C103.475 63.7917 103.549 63.5626 103.57 63.3262C103.591 63.0898 103.558 62.8518 103.474 62.629C103.389 62.4062 103.255 62.204 103.082 62.0367L104.295 47.8528L100.682 48.3339L100.614 62.1142C100.342 62.4154 100.194 62.8025 100.198 63.2022C100.202 63.6019 100.357 63.9864 100.634 64.2827C100.912 64.579 101.291 64.7665 101.702 64.8096C102.112 64.8527 102.525 64.7485 102.861 64.5167L102.862 64.5165Z" fill="#FFB8B8"/>
<path id="Path 212" d="M104.531 49.8953C104.463 49.8953 104.396 49.8859 104.331 49.8673L100.453 48.7631C100.365 48.7379 100.282 48.6961 100.21 48.64C100.139 48.5839 100.079 48.5147 100.035 48.4364C99.9906 48.358 99.9628 48.2719 99.953 48.1831C99.9431 48.0943 99.9515 48.0046 99.9775 47.9189C99.983 47.9008 99.9893 47.883 99.9963 47.8654L101.431 44.2762C101.491 44.1245 101.605 43.9988 101.753 43.9219C101.901 43.845 102.072 43.8221 102.236 43.8573L104.798 44.3964C104.958 44.4301 105.101 44.5168 105.201 44.6415C105.302 44.7662 105.355 44.9212 105.351 45.0796L105.231 49.2336C105.226 49.4104 105.151 49.5784 105.02 49.7019C104.889 49.8254 104.714 49.8947 104.531 49.8951V49.8953Z" fill="#CCCCCC"/>
</g>
</g>
</g>
<defs>
<clipPath id="clip0_380_724">
<rect x="0.915039" y="0.789795" width="119.691" height="88.926" rx="10" fill="white"/>
</clipPath>
</defs>
</svg>
