<svg width="121" height="90" viewBox="0 0 121 90" fill="none" xmlns="http://www.w3.org/2000/svg">
<g id="undraw_booking_re_gw4j 1">
<g clip-path="url(#clip0_380_580)">
<path id="Vector" d="M115.94 60.1819C115.076 61.2411 114.004 62.0297 112.841 62.6419H112.839C112.73 62.7001 112.62 62.7568 112.51 62.8103H112.508L112.507 62.8119L112.505 62.8103H112.504L112.504 62.8109L112.504 62.8115L112.503 62.8118L112.503 62.8119H112.501L112.5 62.8103C112.498 62.8119 112.498 62.8119 112.497 62.8103L112.496 62.8119L112.494 62.8103H112.493C112.491 62.8119 112.491 62.8119 112.49 62.8103H112.489C111.71 63.1881 110.911 63.5088 110.095 63.7704C105.3 65.2966 100.259 65.592 95.3483 64.6345C95.2544 64.6156 95.1617 64.5967 95.0677 64.5778V51.8118C95.1604 51.7678 95.2544 51.7237 95.3483 51.6812C95.9615 51.3963 96.5821 51.1345 97.2101 50.8958C98.1136 50.5496 99.0298 50.2526 99.9585 50.005C102.989 49.1822 106.115 48.8986 109.224 49.1645C109.789 49.2117 110.353 49.2799 110.916 49.3691C112.093 49.5533 113.328 49.8743 114.413 50.4315H114.415C114.573 50.5149 114.729 50.6015 114.883 50.6944C115.849 51.2814 116.662 52.0888 117.159 53.1953C117.337 53.5927 117.466 54.0159 117.541 54.4529V54.456C117.569 54.6071 117.588 54.7598 117.604 54.9109C117.781 56.7744 117.092 58.7685 115.94 60.1819Z" fill="#F2F2F2"/>
<path id="Vector_2" d="M117.604 54.9109C117.59 54.9148 117.576 54.9169 117.562 54.9172C115.158 55.0353 112.758 55.2105 110.362 55.4429H110.357C110.348 55.4445 110.339 55.4445 110.329 55.4461C107.869 55.6853 105.413 55.9849 102.962 56.3448C102.859 56.3605 102.756 56.3762 102.654 56.3904C100.959 56.6438 99.2674 56.925 97.5791 57.234C96.8341 57.3709 96.0905 57.5136 95.3483 57.6621C95.2544 57.681 95.1617 57.6983 95.0677 57.7188V57.2419C95.1617 57.2214 95.2557 57.2041 95.3483 57.1852C97.8204 56.6942 100.301 56.2655 102.79 55.8993C103.415 55.8049 104.042 55.7157 104.67 55.6318C106.482 55.3862 108.298 55.1743 110.116 54.9959C110.249 54.9833 110.381 54.9707 110.515 54.9581C112.842 54.7362 115.173 54.5678 117.507 54.4529C117.518 54.4523 117.53 54.4534 117.541 54.4561C117.765 54.4781 117.813 54.8558 117.604 54.9109Z" fill="white"/>
<path id="Vector_3" d="M112.613 62.3466C109.619 62.3712 106.669 60.9471 104.552 58.5897C103.954 57.922 103.428 57.1789 102.983 56.3752C102.84 56.1184 102.506 56.4016 102.647 56.6563C104.292 59.6153 107.032 61.7232 110.052 62.4982C110.91 62.7162 111.787 62.8216 112.667 62.8121C112.935 62.8098 112.88 62.3444 112.613 62.3466Z" fill="white"/>
<path id="Vector_4" d="M99.9585 50.005C99.9457 50.0493 99.9227 50.089 99.892 50.1202C99.8612 50.1514 99.8237 50.173 99.7831 50.1829C99.097 50.3845 98.4341 50.675 97.8078 51.0485C96.8932 51.5904 96.0626 52.2946 95.3483 53.1339C95.3105 53.1764 95.274 53.2189 95.2389 53.263C95.18 53.3322 95.1239 53.4031 95.0677 53.4755V52.7893C95.1576 52.6822 95.2515 52.5768 95.3483 52.476C95.9123 51.8703 96.5371 51.34 97.2101 50.8958C98.1136 50.5496 99.0298 50.2526 99.9585 50.005Z" fill="white"/>
<path id="Vector_5" d="M114.662 50.3075C112.757 51.2258 111.164 52.802 110.113 54.8066C110.092 54.864 110.091 54.9284 110.112 54.986C110.133 55.0436 110.173 55.0896 110.224 55.1141C110.275 55.1368 110.332 55.1365 110.383 55.1133C110.435 55.0901 110.476 55.0457 110.498 54.9894C111.501 53.096 113.014 51.6089 114.819 50.7424C115.067 50.6237 114.91 50.1886 114.662 50.3075Z" fill="white"/>
<path id="Vector_6" d="M120.403 36.9399C120.077 38.3281 119.453 39.5857 118.677 40.7331L118.676 40.7346C118.604 40.8417 118.53 40.9503 118.453 41.0541V41.0557C117.914 41.8002 117.332 42.5042 116.712 43.1632C114.48 45.549 111.959 47.5694 109.224 49.1645C104.921 51.6859 100.111 53.1764 95.3483 53.2614C95.3119 53.263 95.2754 53.263 95.2389 53.263C95.1814 53.2645 95.1239 53.2645 95.0677 53.2645V46.1111C95.1589 45.916 95.2529 45.7208 95.3483 45.5272C96.5862 43.0285 98.0956 40.7119 99.8421 38.6303C99.8842 38.5784 99.9277 38.5264 99.9712 38.4761C100.628 37.6986 101.316 36.9583 102.036 36.2553C104.807 33.5224 108.009 31.3951 111.477 29.9833C112.595 29.5331 113.821 29.1727 115.014 29.1019C115.189 29.0908 115.363 29.0861 115.539 29.0877C116.637 29.105 117.691 29.3962 118.59 30.117C118.912 30.3765 119.201 30.6842 119.449 31.0315C119.536 31.1527 119.616 31.277 119.693 31.4045V31.4061C120.622 32.9642 120.838 35.0874 120.403 36.9399Z" fill="#F2F2F2"/>
<path id="Vector_7" d="M119.693 31.4045V31.4061C119.683 31.4163 119.671 31.4252 119.659 31.4329C117.583 32.788 115.533 34.1925 113.509 35.6462C113.506 35.6478 113.504 35.6494 113.502 35.6509C113.494 35.6573 113.485 35.6631 113.476 35.6683C111.396 37.1635 109.345 38.7091 107.323 40.305C107.239 40.3711 107.153 40.4388 107.068 40.5065C105.672 41.6129 104.29 42.743 102.923 43.8967C100.342 46.0781 97.8167 48.3403 95.3485 50.6834C95.2545 50.7715 95.1619 50.8612 95.0679 50.9509V50.3387C95.1605 50.249 95.2545 50.1593 95.3485 50.0711C96.2941 49.1756 97.2481 48.2926 98.2105 47.4222C98.4982 47.1625 98.7871 46.9028 99.0762 46.6463C101.644 44.3531 104.269 42.1454 106.951 40.0233H106.953C107.48 39.6062 108.009 39.1928 108.538 38.783C110.042 37.6215 111.563 36.4877 113.1 35.3818C113.211 35.3015 113.323 35.2213 113.436 35.141C115.404 33.7308 117.398 32.3667 119.418 31.0488C119.428 31.0421 119.438 31.0363 119.449 31.0315C119.659 30.9371 119.857 31.2487 119.693 31.4045Z" fill="white"/>
<path id="Vector_8" d="M118.353 40.5904C115.712 42.1724 112.51 42.4483 109.658 41.4643C108.853 41.1844 108.079 40.8007 107.352 40.3209C107.119 40.1679 106.941 40.5927 107.171 40.7444C109.853 42.5078 113.152 42.9468 116.148 42.0591C116.998 41.8052 117.818 41.4413 118.593 40.9746C118.83 40.8327 118.588 40.4495 118.353 40.5904Z" fill="white"/>
<path id="Vector_9" d="M98.5922 46.3491C98.4615 45.5251 98.4166 44.687 98.4586 43.8514C98.5531 41.9458 99.0732 40.0975 99.9711 38.4764C100.628 37.6991 101.317 36.9588 102.037 36.2552C102.044 36.3013 102.04 36.3485 102.025 36.3922C102.011 36.4359 101.986 36.4747 101.954 36.5047C101.431 37.0409 100.964 37.6434 100.564 38.3001C99.1345 40.6406 98.5765 43.5148 99.0091 46.3101C99.0161 46.3418 99.0157 46.375 99.008 46.4065C99.0003 46.438 98.9855 46.4668 98.9651 46.49C98.9351 46.5193 98.8988 46.5393 98.8597 46.548C98.8207 46.5567 98.7803 46.5538 98.7426 46.5395C98.7049 46.5253 98.6712 46.5002 98.6448 46.4668C98.6184 46.4334 98.6003 46.3928 98.5922 46.3491Z" fill="white"/>
<path id="Vector_10" d="M115.182 28.8614C113.876 30.6671 113.117 32.8933 113.017 35.2161C113.022 35.278 113.048 35.3352 113.09 35.3753C113.133 35.4154 113.187 35.4353 113.243 35.4305C113.297 35.4239 113.348 35.3939 113.383 35.3467C113.419 35.2995 113.437 35.2388 113.434 35.1771C113.538 32.9778 114.262 30.8725 115.501 29.1646C115.672 28.9304 115.353 28.6268 115.182 28.8614Z" fill="white"/>
<path id="Vector_11" d="M100.653 34.0329V34.0345C100.643 34.1699 100.632 34.3036 100.619 34.4374V34.4406C100.522 35.3929 100.369 36.3371 100.163 37.2673C100.065 37.7238 99.9585 38.177 99.8421 38.6303C99.8281 38.6886 99.8126 38.7468 99.7972 38.8035V38.805C99.4545 40.1234 99.0451 41.4187 98.571 42.6847C97.6986 45.0156 96.6189 47.2419 95.3483 49.3298C95.2572 49.4824 95.1632 49.6351 95.0677 49.7862V25.1388C95.1617 25.1325 95.2544 25.1325 95.3483 25.1356C95.3932 25.1356 95.4381 25.1372 95.483 25.1403C95.8789 25.1637 96.2699 25.249 96.6447 25.3937C96.7766 25.4425 96.9042 25.4976 97.0306 25.559C98.5612 26.3113 99.7636 27.9702 100.285 29.7944C100.677 31.1605 100.755 32.5975 100.653 34.0329Z" fill="#F2F2F2"/>
<path id="Vector_12" d="M97.0306 25.5591C97.0273 25.5745 97.022 25.5893 97.0151 25.6031C96.4469 26.8418 95.8913 28.0868 95.3483 29.338C95.2544 29.5536 95.1604 29.7708 95.0677 29.9865V28.9162C95.1604 28.7021 95.2539 28.4881 95.3483 28.274C95.7679 27.3203 96.1944 26.3707 96.6279 25.4253C96.6326 25.4142 96.6383 25.4037 96.6447 25.3938C96.7738 25.186 97.0936 25.3277 97.0306 25.5591Z" fill="white"/>
<path id="Vector_13" d="M100.698 34.2864C100.673 34.3367 100.647 34.3871 100.619 34.4375C100.207 35.2429 99.7171 35.9945 99.1574 36.6787C98.0826 37.9869 96.7881 39.0443 95.3483 39.7903C95.2557 39.8407 95.1617 39.8879 95.0677 39.932V39.4205C95.1617 39.3733 95.2557 39.3245 95.3483 39.2741C97.4325 38.1589 99.1637 36.3568 100.311 34.1085C100.327 34.0764 100.35 34.0487 100.377 34.0272C100.404 34.0057 100.434 33.9909 100.467 33.9839C100.499 33.9769 100.533 33.9778 100.565 33.9865C100.597 33.9953 100.627 34.0116 100.653 34.0345C100.671 34.0478 100.686 34.0648 100.698 34.0846C100.71 34.1044 100.718 34.1266 100.722 34.15C100.726 34.1734 100.726 34.1975 100.722 34.2209C100.718 34.2443 100.71 34.2665 100.698 34.2864Z" fill="white"/>
<path id="Vector_14" d="M95.3484 5.86468V17.8264H95.0678V17.6989H1.20839V17.8264H0.927795V5.86468C0.929 4.48759 1.41717 3.16728 2.28517 2.19353C3.15318 1.21977 4.33009 0.672128 5.55763 0.670776H90.7186C91.9461 0.672128 93.123 1.21977 93.991 2.19353C94.859 3.16728 95.3472 4.48759 95.3484 5.86468Z" fill="#6C63FF"/>
<path id="Vector_15" d="M90.7186 0.670776H5.55763C4.33009 0.672128 3.15318 1.21978 2.28517 2.19353C1.41717 3.16728 0.929 4.48759 0.927795 5.86468V74.1724C0.929 75.5495 1.41717 76.8698 2.28517 77.8436C3.15318 78.8173 4.33009 79.365 5.55763 79.3663H90.7186C91.9461 79.365 93.123 78.8173 93.991 77.8436C94.859 76.8698 95.3472 75.5495 95.3484 74.1724V5.86468C95.3472 4.48759 94.859 3.16728 93.991 2.19353C93.123 1.21978 91.9461 0.672128 90.7186 0.670776ZM95.0678 74.1724C95.0663 75.4659 94.6076 76.706 93.7923 77.6207C92.977 78.5353 91.8716 79.0499 90.7186 79.0515H5.55763C4.40459 79.0499 3.2992 78.5353 2.48388 77.6207C1.66856 76.706 1.20986 75.4659 1.20839 74.1724V5.86468C1.20986 4.57116 1.66856 3.3311 2.48388 2.41644C3.2992 1.50179 4.40459 0.987209 5.55763 0.985559H90.7186C91.8716 0.987209 92.977 1.50179 93.7923 2.41644C94.6076 3.3311 95.0663 4.57116 95.0678 5.86468V74.1724Z" fill="#3F3D56"/>
<path id="Vector_16" d="M20.0084 12.3963C21.558 12.3963 22.8143 10.987 22.8143 9.24853C22.8143 7.51004 21.558 6.10071 20.0084 6.10071C18.4587 6.10071 17.2024 7.51004 17.2024 9.24853C17.2024 10.987 18.4587 12.3963 20.0084 12.3963Z" fill="white"/>
<path id="Vector_17" d="M76.2679 12.3963C77.8176 12.3963 79.0738 10.987 79.0738 9.24853C79.0738 7.51004 77.8176 6.10071 76.2679 6.10071C74.7182 6.10071 73.4619 7.51004 73.4619 9.24853C73.4619 10.987 74.7182 12.3963 76.2679 12.3963Z" fill="white"/>
<path id="Vector_18" d="M28.1154 44.3471H11.4233C10.7161 44.3462 10.0381 44.0306 9.53809 43.4697C9.03805 42.9087 8.75678 42.1481 8.75598 41.3548V32.5043C8.75678 31.711 9.03805 30.9504 9.53809 30.3895C10.0381 29.8285 10.7161 29.513 11.4233 29.5121H28.1154C28.8225 29.513 29.5005 29.8285 30.0005 30.3895C30.5006 30.9504 30.7819 31.711 30.7827 32.5043V41.3548C30.7819 42.1481 30.5006 42.9087 30.0005 43.4697C29.5005 44.0306 28.8225 44.3462 28.1154 44.3471Z" fill="#6C63FF"/>
<path id="Vector_19" d="M56.5116 44.3471H39.8194C39.1123 44.3462 38.4343 44.0306 37.9343 43.4697C37.4342 42.9087 37.153 42.1481 37.1522 41.3548V32.5043C37.153 31.711 37.4342 30.9504 37.9343 30.3895C38.4343 29.8285 39.1123 29.513 39.8194 29.5121H56.5116C57.2187 29.513 57.8967 29.8285 58.3967 30.3895C58.8968 30.9504 59.178 31.711 59.1788 32.5043V41.3548C59.178 42.1481 58.8968 42.9087 58.3967 43.4697C57.8967 44.0306 57.2187 44.3462 56.5116 44.3471Z" fill="#6C63FF"/>
<path id="Vector_20" d="M56.5115 67.2147H39.8194C39.0908 67.2137 38.3923 66.8886 37.8771 66.3107C37.3619 65.7327 37.0721 64.9491 37.0713 64.1318V55.2811C37.0721 54.4638 37.3619 53.6802 37.8771 53.1022C38.3923 52.5243 39.0908 52.1992 39.8194 52.1982H56.5115C57.2401 52.1992 57.9386 52.5243 58.4538 53.1022C58.969 53.6802 59.2588 54.4638 59.2596 55.2811V64.1318C59.2588 64.9491 58.969 65.7327 58.4538 66.3107C57.9386 66.8886 57.2401 67.2137 56.5115 67.2147Z" fill="#F2F2F2"/>
<path id="Vector_21" d="M28.0607 67.2147H11.3685C10.6399 67.2137 9.94141 66.8886 9.42622 66.3107C8.91104 65.7327 8.62124 64.9491 8.62042 64.1318V55.2811C8.62124 54.4638 8.91104 53.6802 9.42622 53.1022C9.94141 52.5243 10.6399 52.1992 11.3685 52.1982H28.0607C28.7892 52.1992 29.4878 52.5243 30.0029 53.1022C30.5181 53.6802 30.8079 54.4638 30.8087 55.2811V64.1318C30.8079 64.9491 30.5181 65.7327 30.0029 66.3107C29.4878 66.8886 28.7892 67.2137 28.0607 67.2147Z" fill="#F2F2F2"/>
<path id="Vector_22" d="M84.9076 67.2147H68.2155C67.4869 67.2137 66.7884 66.8886 66.2732 66.3107C65.758 65.7327 65.4682 64.9491 65.4674 64.1318V55.2811C65.4682 54.4638 65.758 53.6802 66.2732 53.1022C66.7884 52.5243 67.4869 52.1992 68.2155 52.1982H84.9076C85.6362 52.1992 86.3347 52.5243 86.8499 53.1022C87.3651 53.6802 87.6549 54.4638 87.6557 55.2811V64.1318C87.6549 64.9491 87.3651 65.7327 86.8499 66.3107C86.3347 66.8886 85.6362 67.2137 84.9076 67.2147Z" fill="#F2F2F2"/>
<path id="Vector_23" d="M84.9076 44.3649H68.2155C67.4869 44.364 66.7884 44.0389 66.2732 43.4609C65.758 42.883 65.4682 42.0994 65.4674 41.282V32.4314C65.4682 31.6141 65.758 30.8304 66.2732 30.2525C66.7884 29.6745 67.4869 29.3494 68.2155 29.3485H84.9076C85.6362 29.3494 86.3347 29.6745 86.8499 30.2525C87.3651 30.8304 87.6549 31.6141 87.6557 32.4314V41.282C87.6549 42.0994 87.3651 42.883 86.8499 43.4609C86.3347 44.0389 85.6362 44.364 84.9076 44.3649Z" fill="#F2F2F2"/>
<path id="Vector_24" d="M19.7693 42.0074C22.2691 42.0074 24.2956 39.734 24.2956 36.9297C24.2956 34.1253 22.2691 31.8519 19.7693 31.8519C17.2695 31.8519 15.243 34.1253 15.243 36.9297C15.243 39.734 17.2695 42.0074 19.7693 42.0074Z" fill="white"/>
<path id="Vector_25" d="M19.3207 38.8667C19.2188 38.8669 19.1197 38.8299 19.0382 38.7614L19.0332 38.7572L17.9695 37.8435C17.9201 37.8012 17.8787 37.7484 17.8476 37.6881C17.8165 37.6278 17.7962 37.5613 17.7881 37.4922C17.7799 37.4232 17.7839 37.353 17.7999 37.2857C17.8159 37.2183 17.8436 37.1552 17.8814 37.0999C17.9192 37.0446 17.9663 36.9982 18.02 36.9634C18.0738 36.9285 18.1332 36.9059 18.1947 36.8968C18.2563 36.8877 18.3189 36.8923 18.3788 36.9103C18.4388 36.9283 18.4951 36.9594 18.5443 37.0019L19.2333 37.5945L20.8615 35.2125C20.8992 35.1572 20.9463 35.1108 21.0001 35.076C21.0538 35.0412 21.1131 35.0186 21.1747 35.0094C21.2362 35.0003 21.2987 35.0049 21.3587 35.0229C21.4186 35.0409 21.4748 35.072 21.5241 35.1143L21.5139 35.1298L21.5243 35.1146C21.6237 35.2002 21.6887 35.3266 21.7051 35.4659C21.7215 35.6053 21.6879 35.7462 21.6118 35.8579L19.6966 38.6598C19.6524 38.7243 19.5954 38.7766 19.5302 38.8125C19.465 38.8484 19.3933 38.8669 19.3207 38.8667Z" fill="#6C63FF"/>
<path id="Vector_26" d="M48.2463 41.9344C50.7461 41.9344 52.7726 39.661 52.7726 36.8567C52.7726 34.0523 50.7461 31.7789 48.2463 31.7789C45.7465 31.7789 43.72 34.0523 43.72 36.8567C43.72 39.661 45.7465 41.9344 48.2463 41.9344Z" fill="white"/>
<path id="Vector_27" d="M47.7977 38.7937C47.6958 38.7939 47.5967 38.7569 47.5152 38.6884L47.5102 38.6842L46.4465 37.7705C46.347 37.685 46.2818 37.5587 46.2654 37.4193C46.2489 37.2799 46.2825 37.1389 46.3587 37.0273C46.435 36.9157 46.5476 36.8426 46.6719 36.8241C46.7961 36.8057 46.9218 36.8434 47.0213 36.9289L47.7103 37.5215L49.3385 35.1395C49.3762 35.0842 49.4233 35.0378 49.4771 35.003C49.5308 34.9682 49.5901 34.9456 49.6516 34.9364C49.7132 34.9273 49.7757 34.9319 49.8357 34.9499C49.8956 34.9679 49.9518 34.999 50.001 35.0413L49.9909 35.0568L50.0013 35.0416C50.1007 35.1272 50.1656 35.2536 50.182 35.3929C50.1984 35.5323 50.1649 35.6732 50.0888 35.7849L48.1736 38.5868C48.1293 38.6513 48.0724 38.7036 48.0072 38.7395C47.942 38.7754 47.8703 38.7939 47.7977 38.7937Z" fill="#6C63FF"/>
<path id="Vector_28" d="M78.837 60.8177C78.9857 60.6353 79.0969 60.4185 79.1629 60.1827C79.2288 59.9468 79.2479 59.6976 79.2187 59.4526C79.1895 59.2076 79.1127 58.9728 78.9939 58.7646C78.875 58.5565 78.7169 58.3801 78.5308 58.2479L76.0038 43.1112L72.9307 44.3896L76.3809 58.8666C76.2037 59.2322 76.1522 59.658 76.2361 60.0634C76.3201 60.4687 76.5337 60.8255 76.8364 61.066C77.1392 61.3065 77.51 61.414 77.8788 61.3683C78.2475 61.3225 78.5884 61.1266 78.837 60.8177Z" fill="#A0616A"/>
<path id="Vector_29" d="M54.315 37.7207C54.3227 37.8147 54.3237 37.9092 54.3181 38.0034L60.2934 43.1626L61.9879 42.382L63.3722 45.0968L60.4922 46.8057C60.2595 46.9438 59.9932 46.9935 59.7332 46.9473C59.4733 46.9011 59.2337 46.7616 59.0504 46.5496L53.0778 39.6418C52.7616 39.7218 52.4312 39.6919 52.1306 39.5562C51.83 39.4204 51.5733 39.1851 51.3947 38.8817C51.2162 38.5783 51.1242 38.221 51.131 37.8575C51.1379 37.494 51.2432 37.1415 51.433 36.8468C51.6228 36.5521 51.8881 36.3292 52.1935 36.2077C52.499 36.0863 52.8302 36.072 53.1431 36.1669C53.456 36.2617 53.7357 36.4612 53.945 36.7388C54.1544 37.0163 54.2834 37.3588 54.315 37.7207Z" fill="#A0616A"/>
<path id="Vector_30" d="M68.2748 87.6842H66.5549L65.7365 81.8154L68.2752 81.8156L68.2748 87.6842Z" fill="#A0616A"/>
<path id="Vector_31" d="M68.7135 89.5548L63.1674 89.5545V89.4759C63.1674 89.1578 63.2232 88.8429 63.3317 88.5491C63.4402 88.2553 63.5992 87.9883 63.7997 87.7635C64.0001 87.5386 64.2381 87.3602 64.5 87.2385C64.7619 87.1168 65.0426 87.0542 65.3261 87.0542L68.7136 87.0544L68.7135 89.5548Z" fill="#2F2E41"/>
<path id="Vector_32" d="M74.7285 87.6842H73.0085L72.1902 81.8154L74.7289 81.8156L74.7285 87.6842Z" fill="#A0616A"/>
<path id="Vector_33" d="M75.1672 89.5548L69.6212 89.5545V89.4759C69.6212 89.1578 69.677 88.8429 69.7855 88.5491C69.8939 88.2553 70.053 87.9883 70.2534 87.7635C70.4539 87.5386 70.6918 87.3602 70.9537 87.2385C71.2157 87.1168 71.4964 87.0542 71.7798 87.0542L75.1673 87.0544L75.1672 89.5548Z" fill="#2F2E41"/>
<path id="Vector_34" d="M66.1977 86.5244C66.0407 86.5245 65.8892 86.4589 65.7731 86.3403C65.657 86.2218 65.5845 86.0588 65.5699 85.8834L64.071 63.268L64.1418 63.2615L74.4567 62.3104L74.4594 62.3927L75.2794 85.8204C75.2826 85.9156 75.2686 86.0105 75.2383 86.0995C75.2081 86.1885 75.1621 86.2697 75.1032 86.3383C75.0443 86.4068 74.9737 86.4614 74.8955 86.4987C74.8174 86.5359 74.7334 86.5551 74.6485 86.5551H72.626C72.475 86.5559 72.3288 86.4957 72.2142 86.3854C72.0996 86.2751 72.0243 86.1221 72.002 85.9546L69.2555 67.0291C69.2529 67.0095 69.2437 66.9918 69.2299 66.9795C69.2161 66.9672 69.1987 66.9612 69.1811 66.9626C69.1635 66.964 69.1471 66.9728 69.135 66.9873C69.123 67.0017 69.1162 67.0207 69.1161 67.0405L68.9915 85.7265C68.9902 85.907 68.9276 86.0801 68.8165 86.2106C68.7053 86.3411 68.554 86.4191 68.3934 86.4288L66.2316 86.5233C66.2202 86.5241 66.2089 86.5244 66.1977 86.5244Z" fill="#2F2E41"/>
<path id="Vector_35" d="M67.9583 34.6869C69.8614 34.6869 71.4041 32.9562 71.4041 30.8213C71.4041 28.6863 69.8614 26.9556 67.9583 26.9556C66.0552 26.9556 64.5124 28.6863 64.5124 30.8213C64.5124 32.9562 66.0552 34.6869 67.9583 34.6869Z" fill="#A0616A"/>
<path id="Vector_36" d="M68.6253 64.7103C67.1192 64.7053 65.6204 64.4755 64.1683 64.027C64.0286 63.9814 63.9071 63.8831 63.8244 63.7487C63.7417 63.6144 63.7028 63.4521 63.7143 63.2894C64.1782 55.4681 64.2873 49.3985 63.3118 45.199C62.896 43.4091 63.0848 41.5241 63.8297 40.0272C64.9506 37.7744 67.011 36.4033 69.2087 36.4507C69.3137 36.4529 69.4198 36.4571 69.5269 36.4633C72.8622 36.6559 75.4611 40.0408 75.3204 44.0089L74.6495 62.9223C74.6471 63.0603 74.6083 63.1944 74.538 63.3077C74.4677 63.4209 74.3691 63.5083 74.2545 63.5588C72.4549 64.3183 70.5481 64.7084 68.6253 64.7103Z" fill="#3F3D56"/>
<path id="Vector_37" d="M63.8789 46.6511L61.2977 43.1028C61.2243 43.0019 61.1711 42.8843 61.1418 42.7583C61.1125 42.6322 61.1078 42.5005 61.1279 42.3721C61.1481 42.2438 61.1927 42.1218 61.2586 42.0146C61.3246 41.9073 61.4104 41.8173 61.5102 41.7506L65.0066 39.4133C65.4692 38.9946 66.0609 38.7988 66.6519 38.8688C67.243 38.9388 67.7852 39.2689 68.1597 39.7867C68.5341 40.3045 68.7102 40.9678 68.6493 41.6311C68.5885 42.2943 68.2956 42.9035 67.835 43.3249L65.1024 46.6888C65.0241 46.7851 64.9283 46.8613 64.8214 46.9123C64.7145 46.9633 64.5991 46.9878 64.483 46.9843C64.3668 46.9807 64.2528 46.9491 64.1485 46.8916C64.0443 46.8341 63.9523 46.7521 63.8789 46.6511Z" fill="#3F3D56"/>
<path id="Vector_38" d="M71.9986 46.2059C71.8926 46.1526 71.798 46.0744 71.7214 45.9764C71.6448 45.8785 71.588 45.7631 71.5547 45.6383L70.3928 41.2777C70.1405 40.6739 70.112 39.9825 70.3136 39.3552C70.5151 38.7278 70.9302 38.2158 71.4678 37.9313C72.0054 37.6469 72.6217 37.6132 73.1814 37.8377C73.7411 38.0623 74.1986 38.5267 74.4535 39.1291L76.7005 42.9361C76.7646 43.0448 76.8071 43.1677 76.8251 43.2964C76.8431 43.4251 76.8361 43.5567 76.8047 43.6822C76.7732 43.8076 76.7181 43.924 76.6429 44.0234C76.5678 44.1227 76.4744 44.2028 76.3692 44.258L72.6718 46.1996C72.5666 46.2549 72.452 46.2841 72.3358 46.2852C72.2196 46.2863 72.1046 46.2592 71.9986 46.2059Z" fill="#3F3D56"/>
<path id="Vector_39" d="M69.6611 33.9931L67.1068 33.3373C66.8433 33.2696 66.5268 33.1405 66.4903 32.8401C66.4411 32.4364 66.9591 32.1551 66.9113 31.7512C66.865 31.36 66.3932 31.3095 66.0568 31.1941C65.7435 31.0708 65.4853 30.8156 65.3367 30.4824C65.1882 30.1493 65.161 29.7644 65.261 29.4092C64.897 29.9846 64.0654 30.0339 63.5933 29.5677C63.1212 29.1015 63.0307 28.2557 63.3142 27.6259C63.4674 27.3165 63.6835 27.0521 63.9449 26.854C64.2063 26.656 64.5057 26.53 64.8188 26.4863C65.4481 26.4062 66.0845 26.5393 66.6459 26.8684C66.6833 26.4224 67.1796 26.2416 67.5788 26.2377C68.4082 26.2485 69.214 26.5491 69.8839 27.0977C70.5539 27.6463 71.0548 28.4155 71.3168 29.2983C71.8068 31.0693 71.479 33.0106 70.1083 34.0468L69.6611 33.9931Z" fill="#2F2E41"/>
<path id="Vector_40" d="M95.3887 89.5968H41.9352C41.8979 89.5968 41.8623 89.5802 41.836 89.5507C41.8096 89.5211 41.7949 89.4811 41.7949 89.4394C41.7949 89.3976 41.8096 89.3576 41.836 89.3281C41.8623 89.2986 41.8979 89.282 41.9352 89.282H95.3887C95.4259 89.282 95.4616 89.2986 95.4879 89.3281C95.5142 89.3576 95.529 89.3976 95.529 89.4394C95.529 89.4811 95.5142 89.5211 95.4879 89.5507C95.4616 89.5802 95.4259 89.5968 95.3887 89.5968Z" fill="#3F3D56"/>
</g>
</g>
<defs>
<clipPath id="clip0_380_580">
<rect x="0.927795" y="0.670776" width="119.691" height="88.926" rx="10" fill="white"/>
</clipPath>
</defs>
</svg>
