<svg width="121" height="90" viewBox="0 0 121 90" fill="none" xmlns="http://www.w3.org/2000/svg">
<g id="undraw_web_search_re_efla 1">
<g clip-path="url(#clip0_380_765)">
<path id="Vector" d="M109.479 0.461426H0.866089V66.1072H109.479V0.461426Z" fill="#E6E6E6"/>
<path id="Vector_2" d="M106.373 8.69507H3.9718V62.2236H106.373V8.69507Z" fill="white"/>
<path id="Vector_3" d="M109.432 0.40332H0.819702V4.75791H109.432V0.40332Z" fill="#AB58FF"/>
<path id="Vector_4" d="M4.24865 3.43669C4.72098 3.43669 5.10387 3.07534 5.10387 2.6296C5.10387 2.18386 4.72098 1.82251 4.24865 1.82251C3.77633 1.82251 3.39343 2.18386 3.39343 2.6296C3.39343 3.07534 3.77633 3.43669 4.24865 3.43669Z" fill="white"/>
<path id="Vector_5" d="M7.49487 3.43669C7.96719 3.43669 8.35009 3.07534 8.35009 2.6296C8.35009 2.18386 7.96719 1.82251 7.49487 1.82251C7.02254 1.82251 6.63965 2.18386 6.63965 2.6296C6.63965 3.07534 7.02254 3.43669 7.49487 3.43669Z" fill="white"/>
<path id="Vector_6" d="M10.7411 3.43669C11.2134 3.43669 11.5963 3.07534 11.5963 2.6296C11.5963 2.18386 11.2134 1.82251 10.7411 1.82251C10.2688 1.82251 9.88586 2.18386 9.88586 2.6296C9.88586 3.07534 10.2688 3.43669 10.7411 3.43669Z" fill="white"/>
<path id="Vector_7" d="M39.5887 14.249H13.2764V56.6695H39.5887V14.249Z" fill="#E6E6E6"/>
<path id="Vector_8" d="M66.0575 14.249H44.1306V25.9257H66.0575V14.249Z" fill="#AB58FF"/>
<path id="Vector_9" d="M66.0575 29.1775H44.1306V41.741H66.0575V29.1775Z" fill="#E6E6E6"/>
<path id="Vector_10" d="M66.0575 44.9928H44.1306V56.6695H66.0575V44.9928Z" fill="#E6E6E6"/>
<path id="Vector_11" d="M97.0685 14.249H70.7562V32.7356H97.0685V14.249Z" fill="#E6E6E6"/>
<path id="Vector_12" d="M97.0685 38.1829H70.7562V56.6695H97.0685V38.1829Z" fill="#E6E6E6"/>
<path id="Vector_13" d="M86.9321 34.0637V30.0838C86.9321 28.6694 87.5275 27.3129 88.5873 26.3128C89.6471 25.3126 91.0845 24.7507 92.5832 24.7507C94.082 24.7507 95.5194 25.3126 96.5792 26.3128C97.639 27.3129 98.2343 28.6694 98.2343 30.0838V34.0637C98.2341 34.2536 98.154 34.4357 98.0117 34.57C97.8694 34.7043 97.6765 34.7799 97.4752 34.7801H87.6912C87.49 34.7799 87.297 34.7043 87.1547 34.57C87.0124 34.4357 86.9324 34.2536 86.9321 34.0637Z" fill="#2F2E41"/>
<path id="Vector_14" d="M100.939 85.8575L98.9461 86.3781L95.8699 79.3706L98.8117 78.6023L100.939 85.8575Z" fill="#FFB8B8"/>
<path id="Vector_15" d="M97.3649 86.2126L101.209 85.2086L101.879 87.4927L95.6144 89.1288C95.5264 88.8289 95.5019 88.5155 95.5423 88.2066C95.5827 87.8977 95.6871 87.5994 95.8496 87.3286C96.0122 87.0578 96.2297 86.8199 96.4896 86.6284C96.7496 86.4369 97.047 86.2956 97.3649 86.2126Z" fill="#2F2E41"/>
<path id="Vector_16" d="M80.1592 87.3044H78.091L77.1071 79.7764H80.1595L80.1592 87.3044Z" fill="#FFB8B8"/>
<path id="Vector_17" d="M76.6137 86.7467H80.6021V89.1166H74.1024C74.1024 88.8054 74.1674 88.4972 74.2936 88.2097C74.4198 87.9222 74.6048 87.6609 74.8379 87.4408C75.0711 87.2208 75.348 87.0462 75.6527 86.9271C75.9573 86.808 76.2839 86.7467 76.6137 86.7467Z" fill="#2F2E41"/>
<path id="Vector_18" d="M77.6653 45.2326C77.8129 45.4206 78.0024 45.5758 78.2205 45.6873C78.4385 45.7987 78.6798 45.8637 78.9274 45.8776C79.1749 45.8916 79.4227 45.8541 79.6532 45.7679C79.8838 45.6817 80.0915 45.5488 80.2617 45.3786L85.7594 47.7121L85.2593 44.7938L80.1153 43.0253C79.7934 42.7743 79.3852 42.6435 78.9679 42.6577C78.5507 42.6718 78.1534 42.8299 77.8514 43.1019C77.5494 43.374 77.3637 43.7412 77.3294 44.1339C77.2951 44.5266 77.4146 44.9175 77.6653 45.2326Z" fill="#FFB8B8"/>
<path id="Vector_19" d="M89.088 62.7821C87.3607 62.7821 85.5727 62.5393 84.0697 61.8172C83.2718 61.4414 82.5648 60.9142 81.9927 60.2687C81.4206 59.6232 80.9959 58.8732 80.745 58.0656C79.9619 55.7256 80.9493 53.4266 81.9042 51.2035C82.4958 49.8258 83.0547 48.5247 83.1997 47.2421L83.2504 46.7867C83.4762 44.7414 83.6713 42.975 84.7512 42.3125C85.311 41.9691 86.0636 41.9495 87.0522 42.2525L96.3377 45.0991L95.9963 61.7336L95.9399 61.7514C95.8913 61.7668 92.618 62.7821 89.088 62.7821Z" fill="#2F2E41"/>
<path id="Vector_20" d="M86.8899 37.0738C86.8899 37.0738 91.4445 35.8002 94.987 36.2778C94.987 36.2778 92.9627 46.7848 93.6375 50.2871C94.3122 53.7894 81.9136 51.6402 84.4439 48.2971L85.2874 44.3172C85.2874 44.3172 83.6005 42.7253 85.1187 40.8149L86.8899 37.0738Z" fill="#AB58FF"/>
<path id="Vector_21" d="M84.6496 62.4667L79.0363 61.4735L80.996 47.2403C81.1278 46.8429 84.1637 37.8249 85.5425 37.337C86.5436 37.0043 87.5674 36.7358 88.607 36.5335L88.8066 36.4958L87.6811 38.0892L83.2 48.2227L84.6496 62.4667Z" fill="#2F2E41"/>
<path id="Vector_22" d="M81.7248 85.5603L74.472 84.4196L78.5422 68.7349L84.5987 47.2853L84.6585 47.6662C84.6632 47.6945 85.229 50.4966 93.6244 49.2533L93.6983 49.2424L93.7187 49.3103L103.866 83.1454L95.6015 84.4453L88.064 59.7592L81.7248 85.5603Z" fill="#2F2E41"/>
<path id="Vector_23" d="M91.7775 65.1304L91.782 65.01C91.787 64.8763 92.286 51.5782 92.1194 46.23C91.9521 40.8637 93.7931 36.2165 93.8117 36.1701L93.8267 36.1328L93.8674 36.1218C96.2492 35.4796 98.3155 37.3962 98.3361 37.4156L98.3652 37.443L97.6868 42.7245L100.591 61.9302L91.7775 65.1304Z" fill="#2F2E41"/>
<path id="Vector_24" d="M91.422 34.6875C93.7102 34.6875 95.5652 32.9369 95.5652 30.7775C95.5652 28.618 93.7102 26.8674 91.422 26.8674C89.1338 26.8674 87.2788 28.618 87.2788 30.7775C87.2788 32.9369 89.1338 34.6875 91.422 34.6875Z" fill="#FFB8B8"/>
<path id="Vector_25" d="M85.5952 30.4023C85.5966 29.2838 86.068 28.2115 86.906 27.4206C87.7441 26.6297 88.8803 26.1849 90.0655 26.1836H90.909C92.0942 26.1849 93.2304 26.6297 94.0684 27.4206C94.9065 28.2115 95.3779 29.2838 95.3792 30.4023V30.4819H93.5967L92.9888 28.8753L92.8672 30.4819H91.946L91.6393 29.6713L91.5779 30.4819H85.5952V30.4023Z" fill="#2F2E41"/>
<path id="Vector_26" d="M91.0142 35.2276C90.9305 35.1207 90.8805 34.9936 90.87 34.8611C90.8595 34.7285 90.8889 34.5958 90.9548 34.4783C91.8486 32.8739 93.1 29.9093 91.4389 28.0811L91.3195 27.9497H96.1419V34.7824L91.7611 35.5118C91.7168 35.5192 91.6718 35.523 91.6268 35.523C91.5072 35.523 91.3893 35.4962 91.2828 35.4449C91.1763 35.3935 91.0843 35.3191 91.0142 35.2276Z" fill="#2F2E41"/>
<path id="Vector_27" d="M71.5985 7.01732C68.224 4.33014 64.0947 2.62651 59.7129 2.11372C55.3312 1.60093 50.886 2.3011 46.9182 4.12903C42.9505 5.95696 39.6312 8.83383 37.3644 12.4096C35.0976 15.9853 33.9809 20.1058 34.1503 24.2695C34.3197 28.4333 35.7678 32.4608 38.3184 35.862C40.8691 39.2632 44.4123 41.8915 48.5169 43.4269C52.6214 44.9624 57.1104 45.3389 61.4376 44.5106C65.7648 43.6823 69.7436 41.6849 72.8898 38.7615L100.828 61.0088C101.253 61.3479 101.803 61.5138 102.358 61.47C102.913 61.4261 103.426 61.1761 103.786 60.775C104.145 60.3738 104.321 59.8544 104.274 59.3309C104.228 58.8074 103.963 58.3227 103.538 57.9836L103.535 57.9811L75.5969 35.7338C78.8424 31.3379 80.2314 25.9567 79.4918 20.6447C78.7522 15.3326 75.9372 10.4727 71.5985 7.01732ZM69.7974 33.5916C67.6209 36.0258 64.7284 37.7963 61.4857 38.6792C58.2429 39.562 54.7956 39.5176 51.5796 38.5515C48.3636 37.5854 45.5234 35.741 43.4182 33.2515C41.313 30.7621 40.0372 27.7394 39.7523 24.5657C39.4674 21.3921 40.1861 18.2099 41.8176 15.4217C43.4491 12.6335 45.92 10.3645 48.9179 8.90157C51.9158 7.43865 55.3061 6.84754 58.66 7.20299C62.0139 7.55843 65.1808 8.84448 67.7602 10.8985C69.4729 12.2623 70.8842 13.9311 71.9134 15.8096C72.9427 17.6882 73.5698 19.7396 73.759 21.8468C73.9482 23.9541 73.6957 26.0759 73.0159 28.091C72.3362 30.1062 71.2426 31.9753 69.7974 33.5916Z" fill="#3F3D56"/>
<path id="Vector_28" opacity="0.3" d="M45.7511 35.5142C42.4775 32.9071 40.3625 29.2336 39.8261 25.223C39.2896 21.2125 40.371 17.1582 42.8554 13.8652C42.5292 14.1753 42.2138 14.5001 41.9092 14.8395C40.4641 16.4558 39.3704 18.3249 38.6907 20.34C38.0109 22.3552 37.7585 24.477 37.9476 26.5842C38.1368 28.6915 38.7639 30.7429 39.7932 32.6214C40.8225 34.4999 42.2337 36.1688 43.9464 37.5326C45.6591 38.8964 47.6396 39.9285 49.7749 40.57C51.9103 41.2114 54.1586 41.4497 56.3915 41.2712C58.6244 41.0927 60.7982 40.5008 62.7887 39.5295C64.7793 38.5582 66.5476 37.2263 67.9927 35.61C68.2966 35.2702 68.5827 34.9221 68.8512 34.5659C65.8295 37.4311 61.7767 39.1191 57.4973 39.2947C53.2179 39.4704 49.025 38.1209 45.7511 35.5142Z" fill="black"/>
<path id="Vector_29" d="M92.7521 52.0681C92.993 52.1237 93.2439 52.1288 93.4871 52.083C93.7303 52.0372 93.9599 51.9416 94.1597 51.803C94.3595 51.6643 94.5247 51.4861 94.6436 51.2807C94.7625 51.0753 94.8322 50.8478 94.8479 50.6143L100.656 49.0928L98.2953 47.15L93.1414 48.8927C92.7239 48.8939 92.3213 49.0395 92.01 49.3021C91.6987 49.5646 91.5002 49.9258 91.4522 50.3173C91.4042 50.7087 91.5101 51.1031 91.7496 51.4258C91.9892 51.7485 92.3459 51.9771 92.7521 52.0681Z" fill="#FFB8B8"/>
<path id="Vector_30" d="M95.1665 51.2629L94.813 48.0939L99.6649 45.5676L96.5016 41.9538L97.0177 37.8944L98.3031 37.3745L98.3431 37.423C98.9492 38.1585 104.265 44.6315 104.265 45.4317C104.265 46.2536 103.248 48.6671 101.857 49.3236C100.515 49.9569 95.4751 51.1877 95.2612 51.2399L95.1665 51.2629Z" fill="#2F2E41"/>
<path id="Vector_31" d="M120.342 89.3293H56.071C56.0263 89.3293 55.9834 89.3125 55.9517 89.2826C55.9201 89.2528 55.9023 89.2123 55.9023 89.1701C55.9023 89.1278 55.9201 89.0873 55.9517 89.0575C55.9834 89.0276 56.0263 89.0109 56.071 89.0109H120.342C120.386 89.0109 120.429 89.0276 120.461 89.0575C120.493 89.0873 120.51 89.1278 120.51 89.1701C120.51 89.2123 120.493 89.2528 120.461 89.2826C120.429 89.3125 120.386 89.3293 120.342 89.3293Z" fill="#CCCCCC"/>
</g>
</g>
<defs>
<clipPath id="clip0_380_765">
<rect x="0.819702" y="0.40332" width="119.691" height="88.926" rx="10" fill="white"/>
</clipPath>
</defs>
</svg>
